<?xml version="1.0" encoding="utf-8"?>
<!-- Generator: Adobe Illustrator 16.0.0, SVG Export Plug-In . SVG Version: 6.00 Build 0)  -->
<!DOCTYPE svg PUBLIC "-//W3C//DTD SVG 1.1//EN" "http://www.w3.org/Graphics/SVG/1.1/DTD/svg11.dtd">
<svg version="1.1" id="Layer_1" xmlns="http://www.w3.org/2000/svg" xmlns:xlink="http://www.w3.org/1999/xlink" x="0px" y="0px"
	 width="311px" height="29px" viewBox="0 0 311 29" enable-background="new 0 0 311 29" xml:space="preserve">
<g>
	<g>
		<path fill="#18325B" d="M120.636,5.956c0-2.859-0.279-4.051-2.818-5.242V0.555h12.306c7.662,0,12.068,1.548,12.068,6.511
			c0,3.494-4.128,5.598-7.463,6.113v0.198c4.248,0.357,8.456,2.938,8.456,6.511c0,5.953-5.756,8.057-13.695,8.057h-11.671v-0.158
			c2.539-1.189,2.818-2.541,2.818-5.396V5.956z M128.536,13.14h0.635c3.058,0,5.201-2.342,5.201-5.637
			c0-3.494-2.5-5.599-4.843-5.599h-0.993V13.14z M129.291,14.53h-0.755v12.026h0.755c3.056,0,5.558-2.342,5.558-6.193
			C134.848,16.912,132.426,14.53,129.291,14.53z"/>
		<path fill="#18325B" d="M167.835,9.925c0-7.225-1.47-8.02-4.011-9.21V0.555h10.163v0.159c-2.539,1.19-4.009,1.985-4.009,9.21
			v10.321c0,5.676-4.05,8.297-11.037,8.297c-7.503,0-12.466-2.504-12.466-8.297V5.956c0-2.859-0.276-4.051-2.818-5.242V0.555h13.18
			v0.159c-2.54,1.19-2.818,2.382-2.818,5.242v14.847c0,3.172,2.065,5.355,6.511,5.355c4.564,0,7.305-1.943,7.305-6.031V9.925z"/>
		<path fill="#18325B" d="M182.913,28.543c-3.413,0-7.064-0.756-9.089-1.826v-7.822h0.197c2.78,4.328,5.479,8.178,8.733,8.178
			c2.146,0,4.211-1.703,4.211-4.445c0-5.041-13.18-6.668-13.18-14.647c0-4.843,5.04-7.979,10.158-7.979
			c3.534,0,6.232,0.914,7.742,1.548v6.869h-0.158c-2.302-3.772-4.764-6.948-7.66-6.948c-1.827,0-3.535,1.786-3.535,4.049
			c0,5.12,13.142,6.271,13.142,14.29C193.475,25.369,188.63,28.543,182.913,28.543z"/>
		<path fill="#18325B" d="M205.619,22.549c0,2.859,0.277,4.049,2.817,5.238v0.158h-13.18v-0.158c2.54-1.189,2.818-2.379,2.818-5.238
			V5.956c0-2.859-0.278-4.051-2.818-5.242V0.555h13.18v0.159c-2.54,1.19-2.817,2.382-2.817,5.242V22.549z"/>
		<path fill="#18325B" d="M238.286,27.945h-3.016L216.095,6.113V18.42c0,6.826,1.073,8.178,3.613,9.367v0.158h-9.565v-0.158
			c2.538-1.189,3.611-2.541,3.611-9.367V5.956c0-2.859-1.033-4.051-3.573-5.242V0.555h10.283l15.479,17.427V9.925
			c0-6.828-1.071-8.02-3.61-9.21V0.555h9.568v0.159c-2.542,1.19-3.614,2.382-3.614,9.21V27.945z"/>
		<path fill="#18325B" d="M263.413,0.555v7.543h-0.28c-2.899-4.446-3.892-6.074-7.464-6.074h-2.62V13.14h1.825
			c3.495,0,4.808-0.913,6.473-3.453h0.279v8.215h-0.279c-1.665-2.461-3.057-3.293-6.473-3.293h-1.825v11.87h2.821
			c4.204,0,5.435-2.303,9.208-6.748h0.278l-0.794,8.215h-21.876v-0.158c2.542-1.189,2.82-2.541,2.82-5.396V5.956
			c0-2.859-0.278-4.051-2.82-5.242V0.555H263.413z"/>
		<path fill="#18325B" d="M277.502,28.543c-3.418,0-7.069-0.756-9.094-1.826v-7.822h0.2c2.777,4.328,5.476,8.178,8.731,8.178
			c2.146,0,4.21-1.703,4.21-4.445c0-5.041-13.181-6.668-13.181-14.647c0-4.843,5.042-7.979,10.164-7.979
			c3.533,0,6.23,0.914,7.738,1.548v6.869h-0.157c-2.305-3.772-4.763-6.948-7.66-6.948c-1.826,0-3.537,1.786-3.537,4.049
			c0,5.12,13.142,6.271,13.142,14.29C288.059,25.369,283.216,28.543,277.502,28.543z"/>
		<path fill="#18325B" d="M300.441,28.543c-3.414,0-7.063-0.756-9.093-1.826v-7.822h0.202c2.778,4.328,5.477,8.178,8.733,8.178
			c2.143,0,4.206-1.703,4.206-4.445c0-5.041-13.181-6.668-13.181-14.647c0-4.843,5.045-7.979,10.163-7.979
			c3.534,0,6.234,0.914,7.742,1.548v6.869h-0.158c-2.303-3.772-4.765-6.948-7.662-6.948c-1.825,0-3.534,1.786-3.534,4.049
			c0,5.12,13.14,6.271,13.14,14.29C311,25.369,306.157,28.543,300.441,28.543z"/>
	</g>
	<g>
		<g>
			<rect y="0.525" fill="#18325B" width="109.973" height="27.492"/>
		</g>
		<g>
			<path fill="#FFFFFF" d="M47.112,9.768c0.797,0.405,0.889,0.771,0.889,1.751v5.396c0,1.006-0.092,1.346-0.889,1.764v0.053h4.168
				v-0.053c-0.798-0.418-0.889-0.758-0.889-1.764v-5.396c0-0.98,0.091-1.346,0.889-1.751V9.715h-4.168V9.768z"/>
			<path fill="#FFFFFF" d="M43.689,18.09h-0.405v-6.571c0-0.98,0.079-1.346,1.006-1.751V9.715h-4.272v0.053
				c0.796,0.405,0.875,0.771,0.875,1.751v5.396c0,1.006-0.079,1.371-0.731,1.764v0.053h6.493l0.013-2.719h-0.091
				C45.192,17.984,44.996,18.09,43.689,18.09z"/>
			<path fill="#FFFFFF" d="M38.581,17.201l-1.842-3.071c0.731-0.234,1.934-0.953,1.934-2.155c0-1.425-0.706-2.261-3.867-2.261
				h-3.932v0.053c0.81,0.405,0.887,0.771,0.887,1.751v5.343c0,1.006-0.078,1.398-0.887,1.816v0.053h4.167v-0.053
				c-0.797-0.418-0.889-0.811-0.889-1.816v-6.519h0.209c0.94,0,1.882,0.47,1.882,1.855c0,1.162-0.785,1.868-1.764,2.103l1.514,3.163
				c0.576,1.201,0.719,1.268,2.366,1.268h1.724v-0.053C39.639,18.52,39.274,18.363,38.581,17.201z"/>
			<path fill="#FFFFFF" d="M27.176,18.09h-0.863v-3.632h0.405c1.084,0,1.646,0.327,2.247,1.136h0.079V12.72h-0.079
				c-0.588,0.797-1.136,1.15-2.247,1.15h-0.405v-3.528h0.928c1.11,0,1.555,0.392,2.469,1.855h0.091V9.715h-6.793v0.053
				c0.823,0.405,0.915,0.771,0.915,1.751v5.343c0,1.006-0.092,1.398-0.915,1.816v0.053h7.146v-2.719h-0.091
				C28.678,17.984,28.482,18.09,27.176,18.09z"/>
			<path fill="#FFFFFF" d="M20.017,13.948v-0.065c0.993-0.091,2.181-0.889,2.181-2.052c0-1.58-1.215-2.116-3.88-2.116h-4.076v0.053
				c0.758,0.405,0.862,0.771,0.862,1.751v5.343c0,1.006-0.104,1.398-0.862,1.816v0.053h3.724c2.9,0,4.612-0.771,4.612-2.666
				C22.578,14.863,21.349,14.065,20.017,13.948z M17.887,18.115h-0.392v-7.812h0.614c0.967,0,1.802,0.693,1.802,1.673
				c0,1.071-0.587,1.659-1.554,2.09v0.065c0.98,0.196,1.698,0.954,1.698,2.104C20.056,17.424,18.985,18.115,17.887,18.115z"/>
			<path fill="#FFFFFF" d="M59.093,9.768c0.784,0.405,1.124,0.771,1.124,3.057v2.443L55.16,9.715h-3.357v0.053
				c0.811,0.418,1.28,0.824,1.28,3.109v2.706c0,2.285-0.34,2.678-1.15,3.096v0.053h3.306v-0.053
				c-0.797-0.418-1.163-0.811-1.163-3.096v-3.535l6.009,6.812h1.124v-6.035c0-2.286,0.352-2.652,1.137-3.057V9.715h-3.253V9.768z"/>
			<path fill="#FFFFFF" d="M82.334,16.914v-5.396c0-0.98,0.091-1.346,0.875-1.751V9.715h-4.154v0.053
				c0.81,0.405,0.888,0.771,0.888,1.751v5.396c0,1.006-0.078,1.346-0.888,1.764v0.053h4.154v-0.053
				C82.426,18.26,82.334,17.92,82.334,16.914z"/>
			<path fill="#FFFFFF" d="M95.582,16.012C94.197,17.984,94,18.09,92.693,18.09h-0.862v-3.632h0.406
				c1.084,0,1.646,0.327,2.246,1.136h0.079V12.72h-0.079c-0.587,0.797-1.135,1.15-2.246,1.15h-0.406v-3.528h0.928
				c1.111,0,1.555,0.392,2.469,1.855h0.092V9.715h-6.794v0.053c0.823,0.405,0.915,0.771,0.915,1.751v5.343
				c0,1.006-0.092,1.398-0.915,1.816v0.053h7.147v-2.719H95.582z"/>
			<path fill="#FFFFFF" d="M86.906,17.111l-2.508-4l1.059-1.215c1.229-1.424,1.829-1.777,2.73-2.129V9.715h-4.103v0.053
				c1.15,0.34,1.294,1.019,0.418,2.142l-1.882,2.404l1.372,2.627c0.915,1.736,1.176,1.789,2.064,1.789h2.365v-0.053
				C87.9,18.482,87.56,18.143,86.906,17.111z"/>
			<path fill="#FFFFFF" d="M74.234,11.362c0-0.771,0.613-1.242,1.202-1.242c0.889,0,1.737,0.94,2.482,2.195h0.051v-2.26
				c-0.496-0.222-1.411-0.535-2.521-0.535c-1.607,0-3.253,1.031-3.253,2.626c0,2.625,4.351,3.292,4.351,4.897
				c0,0.838-0.744,1.295-1.411,1.295c-1.02,0-2.012-1.189-2.887-2.611h-0.053v2.572c0.641,0.379,1.868,0.627,2.926,0.627
				c1.804,0,3.384-1.02,3.384-2.887C78.506,13.399,74.234,13.033,74.234,11.362z"/>
			<path fill="#FFFFFF" d="M68.042,14.379c0.744,0.417,0.849,0.877,0.849,1.449v2.314c-0.249,0.051-0.562,0.078-0.914,0.078
				c-1.607,0-2.796-1.32-2.796-4.024c0-2.312,0.954-4.076,2.547-4.076c1.058,0,2.143,0.875,2.992,2.195h0.053v-2.221
				c-0.444-0.209-1.464-0.575-2.861-0.575c-2.339,0-5.396,1.685-5.396,4.821c0,3.031,2.743,4.585,5.187,4.585
				c1.019,0,2.561-0.312,3.24-0.523h0.052v-2.6c0-0.862,0.04-1.032,0.679-1.424v-0.052h-3.631V14.379z"/>
		</g>
	</g>
</g>
</svg>
