<?xml version="1.0" encoding="utf-8"?>
<!-- Generator: Adobe Illustrator 16.0.0, SVG Export Plug-In . SVG Version: 6.00 Build 0)  -->
<!DOCTYPE svg PUBLIC "-//W3C//DTD SVG 1.1//EN" "http://www.w3.org/Graphics/SVG/1.1/DTD/svg11.dtd">
<svg version="1.1" id="Layer_1" xmlns="http://www.w3.org/2000/svg" xmlns:xlink="http://www.w3.org/1999/xlink" x="0px" y="0px"
	 width="372.746px" height="33.821px" viewBox="0 0 372.746 33.821" enable-background="new 0 0 372.746 33.821"
	 xml:space="preserve">
<g>
	<g>
		<g>
			<rect fill="#193057" width="135.283" height="33.821"/>
		</g>
		<g>
			<path fill="#FFFFFF" d="M57.956,11.37c0.979,0.499,1.093,0.949,1.093,2.154v6.638c0,1.236-0.114,1.655-1.093,2.17v0.063h5.126
				v-0.063c-0.98-0.515-1.093-0.934-1.093-2.17v-6.638c0-1.205,0.112-1.655,1.093-2.154v-0.063h-5.126V11.37z"/>
			<path fill="#FFFFFF" d="M53.745,21.607h-0.498v-8.083c0-1.205,0.095-1.655,1.237-2.154v-0.063h-5.256v0.063
				c0.98,0.499,1.077,0.949,1.077,2.154v6.638c0,1.236-0.097,1.687-0.9,2.17v0.063h7.987l0.016-3.343h-0.112
				C55.592,21.478,55.352,21.607,53.745,21.607z"/>
			<path fill="#FFFFFF" d="M47.461,20.514l-2.266-3.777c0.9-0.289,2.379-1.173,2.379-2.65c0-1.752-0.868-2.78-4.757-2.78h-4.838
				v0.063c0.997,0.499,1.093,0.949,1.093,2.154v6.572c0,1.238-0.096,1.721-1.093,2.235v0.063h5.127v-0.063
				c-0.98-0.515-1.092-0.997-1.092-2.235v-8.019h0.257c1.157,0,2.312,0.577,2.312,2.282c0,1.429-0.964,2.297-2.168,2.586
				l1.864,3.891c0.707,1.478,0.883,1.559,2.909,1.559h2.122v-0.063C48.763,22.138,48.313,21.945,47.461,20.514z"/>
			<path fill="#FFFFFF" d="M33.431,21.607H32.37V17.14h0.499c1.334,0,2.024,0.401,2.764,1.398h0.097v-3.536h-0.097
				c-0.723,0.979-1.397,1.413-2.764,1.413H32.37v-4.338h1.142c1.366,0,1.913,0.481,3.037,2.282h0.113v-3.054h-8.357v0.063
				c1.013,0.499,1.125,0.949,1.125,2.154v6.572c0,1.238-0.113,1.721-1.125,2.235v0.063h8.792v-3.343h-0.112
				C35.278,21.478,35.038,21.607,33.431,21.607z"/>
			<path fill="#FFFFFF" d="M24.625,16.513v-0.081c1.221-0.111,2.684-1.092,2.684-2.522c0-1.944-1.495-2.604-4.773-2.604H17.52v0.063
				c0.933,0.499,1.062,0.949,1.062,2.154v6.572c0,1.238-0.129,1.721-1.062,2.235v0.063h4.58c3.568,0,5.674-0.947,5.674-3.278
				C27.774,17.637,26.263,16.657,24.625,16.513z M22.004,21.639h-0.481v-9.61h0.755c1.189,0,2.217,0.851,2.217,2.058
				c0,1.317-0.723,2.041-1.913,2.57v0.08c1.206,0.24,2.09,1.174,2.09,2.588C24.672,20.788,23.354,21.639,22.004,21.639z"/>
			<path fill="#FFFFFF" d="M72.693,11.37c0.964,0.499,1.382,0.949,1.382,3.761v3.005l-6.219-6.829h-4.131v0.063
				c0.997,0.515,1.575,1.013,1.575,3.824v3.328c0,2.812-0.418,3.295-1.414,3.81v0.063h4.066v-0.063
				c-0.98-0.515-1.431-0.997-1.431-3.81v-4.347l7.392,8.381h1.383V15.13c0-2.812,0.434-3.262,1.398-3.761v-0.063h-4.002V11.37z"/>
			<path fill="#FFFFFF" d="M101.283,20.162v-6.638c0-1.205,0.114-1.655,1.077-2.154v-0.063h-5.11v0.063
				c0.996,0.499,1.093,0.949,1.093,2.154v6.638c0,1.236-0.097,1.655-1.093,2.17v0.063h5.11v-0.063
				C101.396,21.817,101.283,21.398,101.283,20.162z"/>
			<path fill="#FFFFFF" d="M117.58,19.052c-1.704,2.426-1.945,2.555-3.553,2.555h-1.061V17.14h0.499
				c1.334,0,2.024,0.401,2.764,1.398h0.097v-3.536h-0.097c-0.723,0.979-1.397,1.413-2.764,1.413h-0.499v-4.338h1.142
				c1.366,0,1.912,0.481,3.038,2.282h0.112v-3.054h-8.356v0.063c1.011,0.499,1.125,0.949,1.125,2.154v6.572
				c0,1.238-0.114,1.721-1.125,2.235v0.063h8.79v-3.343H117.58z"/>
			<path fill="#FFFFFF" d="M106.909,20.403l-3.086-4.919l1.302-1.494c1.511-1.752,2.25-2.186,3.359-2.62v-0.063h-5.046v0.063
				c1.414,0.418,1.59,1.254,0.515,2.637l-2.315,2.956l1.688,3.23c1.125,2.139,1.446,2.202,2.54,2.202h2.908v-0.063
				C108.13,22.089,107.712,21.672,106.909,20.403z"/>
			<path fill="#FFFFFF" d="M91.318,13.331c0-0.948,0.756-1.526,1.48-1.526c1.092,0,2.136,1.157,3.053,2.701h0.064v-2.78
				c-0.61-0.274-1.735-0.66-3.101-0.66c-1.977,0-4.002,1.27-4.002,3.23c0,3.23,5.353,4.05,5.353,6.026
				c0,1.029-0.917,1.592-1.737,1.592c-1.253,0-2.474-1.464-3.55-3.216h-0.065v3.166c0.788,0.468,2.297,0.773,3.599,0.773
				c2.219,0,4.164-1.255,4.164-3.554C96.575,15.837,91.318,15.387,91.318,13.331z"/>
			<path fill="#FFFFFF" d="M83.701,17.043c0.916,0.515,1.045,1.077,1.045,1.783v2.846c-0.306,0.062-0.692,0.096-1.125,0.096
				c-1.977,0-3.439-1.623-3.439-4.949c0-2.846,1.174-5.015,3.133-5.015c1.301,0,2.636,1.075,3.68,2.701h0.064v-2.733
				c-0.545-0.256-1.799-0.707-3.519-0.707c-2.876,0-6.636,2.072-6.636,5.93c0,3.729,3.374,5.643,6.38,5.643
				c1.253,0,3.149-0.388,3.985-0.645h0.064v-3.197c0-1.062,0.048-1.27,0.836-1.752v-0.066h-4.469V17.043z"/>
		</g>
	</g>
	<g>
		<path fill="#193057" d="M146.838,33.019v-0.187c3.001-1.408,3.33-3.002,3.33-6.379V7.035c0-3.377-0.329-4.784-3.33-6.191V0.657
			h14.54c9.052,0,14.258,1.829,14.258,7.692c0,4.127-4.877,6.613-8.817,7.223v0.234c5.019,0.422,9.99,3.471,9.99,7.692
			c0,7.036-6.801,9.521-16.181,9.521H146.838z M160.252,15.525c3.611,0,6.144-2.768,6.144-6.66c0-4.127-2.955-6.613-5.722-6.613
			h-1.173v13.273H160.252z M160.393,31.377c3.611,0,6.566-2.767,6.566-7.317c0-4.081-2.861-6.894-6.566-6.894h-0.891v14.211H160.393
			z"/>
		<path fill="#193057" d="M206.213,11.726c0-8.537-1.734-9.475-4.736-10.882V0.657h12.007v0.188
			c-3.002,1.407-4.737,2.345-4.737,10.882V23.92c0,6.707-4.784,9.802-13.039,9.802c-8.865,0-14.728-2.955-14.728-9.802V7.035
			c0-3.377-0.328-4.784-3.33-6.191V0.657h15.571v0.188c-3.001,1.407-3.33,2.814-3.33,6.191v17.542c0,3.752,2.439,6.332,7.692,6.332
			c5.394,0,8.63-2.297,8.63-7.128V11.726z"/>
		<path fill="#193057" d="M214.184,22.326h0.234c3.283,5.112,6.473,9.661,10.318,9.661c2.955,0,5.441-1.688,5.441-4.924
			c0-5.957-16.041-8.208-16.041-17.636c0-5.722,5.955-9.427,12.006-9.427c4.176,0,7.365,1.079,9.146,1.83v8.114h-0.188
			c-2.721-4.456-5.627-8.208-9.053-8.208c-3.096,0-4.783,1.735-4.783,4.408c0,6.05,16.135,7.786,16.135,17.26
			c0,6.566-5.723,10.318-12.477,10.318c-4.033,0-8.35-0.891-10.74-2.157V22.326z"/>
		<path fill="#193057" d="M239.086,33.019v-0.187c3.002-1.408,3.33-2.814,3.33-6.192V7.035c0-3.377-0.328-4.784-3.33-6.191V0.657
			h15.572v0.188c-3.002,1.407-3.332,2.814-3.332,6.191V26.64c0,3.377,0.33,4.784,3.332,6.192v0.187H239.086z"/>
		<path fill="#193057" d="M285.752,33.019L263.098,7.223v14.54c0,8.067,1.268,9.662,4.268,11.069v0.187h-11.303v-0.187
			c3.002-1.408,4.268-3.002,4.268-11.069V7.035c0-3.377-1.219-4.784-4.221-6.191V0.657h12.148l18.291,20.59v-9.521
			c0-8.068-1.266-9.475-4.268-10.882V0.657h11.303v0.188c-3,1.407-4.268,2.814-4.268,10.882v21.293H285.752z"/>
		<path fill="#193057" d="M294.941,33.019v-0.187c3.002-1.408,3.33-3.002,3.33-6.379V7.035c0-3.377-0.328-4.784-3.33-6.191V0.657
			h24.482v8.912h-0.328c-3.424-5.253-4.596-7.177-8.818-7.177h-3.096v13.133h2.158c3.893,0,5.676-1.079,7.645-4.081h0.328v9.709
			h-0.328c-1.969-2.908-3.846-3.893-7.645-3.893h-2.158v14.024h3.33c4.973,0,6.426-2.72,10.883-7.974h0.328l-0.939,9.708H294.941z"
			/>
		<path fill="#193057" d="M324.064,22.326h0.234c3.283,5.112,6.473,9.661,10.318,9.661c2.955,0,5.441-1.688,5.441-4.924
			c0-5.957-16.041-8.208-16.041-17.636c0-5.722,5.957-9.427,12.006-9.427c4.176,0,7.365,1.079,9.146,1.83v8.114h-0.188
			c-2.719-4.456-5.627-8.208-9.053-8.208c-3.094,0-4.783,1.735-4.783,4.408c0,6.05,16.135,7.786,16.135,17.26
			c0,6.566-5.721,10.318-12.477,10.318c-4.033,0-8.348-0.891-10.74-2.157V22.326z"/>
		<path fill="#193057" d="M349.531,22.326h0.234c3.281,5.112,6.473,9.661,10.316,9.661c2.955,0,5.441-1.688,5.441-4.924
			c0-5.957-16.041-8.208-16.041-17.636c0-5.722,5.957-9.427,12.008-9.427c4.174,0,7.363,1.079,9.146,1.83v8.114h-0.189
			c-2.719-4.456-5.627-8.208-9.051-8.208c-3.096,0-4.785,1.735-4.785,4.408c0,6.05,16.135,7.786,16.135,17.26
			c0,6.566-5.721,10.318-12.477,10.318c-4.031,0-8.348-0.891-10.738-2.157V22.326z"/>
	</g>
</g>
</svg>
