<?xml version="1.0" standalone="no"?>
<!DOCTYPE svg PUBLIC "-//W3C//DTD SVG 1.1//EN" "http://www.w3.org/Graphics/SVG/1.1/DTD/svg11.dtd" >
<svg xmlns="http://www.w3.org/2000/svg" xmlns:xlink="http://www.w3.org/1999/xlink" version="1.1">
<metadata></metadata>
<defs>
<font id="berlingske_serif_txextrabold" horiz-adv-x="1128" >
<font-face units-per-em="2048" ascent="1638" descent="-410" />
<missing-glyph horiz-adv-x="368" />
<glyph unicode="&#xfb03;" horiz-adv-x="1996" d="M23 895l28 149h117v93q0 102 39 181.5t107 128t154 73t187 24.5q88 0 148 -24.5t88 -59t45 -84.5q147 168 510 168q189 0 286 -62.5t97 -162.5q0 -70 -50 -115t-114 -45q-71 0 -116.5 33t-45.5 100q0 36 21 72.5t57 62.5q-65 21 -137 21q-158 0 -220.5 -77t-62.5 -275 v-52h371q47 2 142 11t138 16h21v-805q0 -30 0.5 -50.5t4 -39t5 -29t11.5 -22.5t14.5 -17t22.5 -15t27 -14l36 -16v-63h-565v63q38 15 54 23.5t33 22t22 33.5t8 47.5t3 76.5v428q0 110 -24 156.5t-88 46.5h-236v-631q0 -43 0.5 -65t6.5 -44.5t11.5 -31.5t25.5 -22t37 -19.5 t56 -20.5v-63h-589v63q26 11 36.5 15.5t27 13.5t22 15t15 17.5t11.5 22.5t5.5 29.5t4 39t0.5 50.5v629h-333v-635q0 -35 1 -55t3 -39.5t9.5 -30.5t14.5 -21t25 -18t34 -15t48 -18v-63h-588v63q32 13 45.5 19.5t31.5 18.5t23.5 22.5t12.5 30.5t8.5 44t1.5 62v635h-145z M498 1044h333v82q0 33 17 95q-24 -9 -49 -9q-55 0 -96 35t-41 96q0 60 51 111h-49q-166 0 -166 -289v-121z" />
<glyph unicode="&#xfb04;" horiz-adv-x="1994" d="M23 889l28 155h117v93q0 102 39 181.5t107 128t154 73t187 24.5q122 0 192.5 -38t88.5 -105q68 71 172.5 107t230.5 36q174 0 254 -80q92 26 217 80h27v-1284q0 -25 1.5 -43.5t1.5 -34t6 -28t7.5 -20.5t13 -17.5t15 -13.5t21.5 -13t24.5 -12l32.5 -15v-63h-576v63 q32 13 45.5 19.5t31.5 18.5t23.5 22.5t12.5 30.5t8.5 44t1.5 62v938q-161 0 -161 133q0 71 55 123h-55q-185 0 -185 -289v-121h195v-155h-195v-629q0 -39 1 -61.5t7.5 -43.5t13 -31t26 -22t36.5 -19t55 -20v-63h-591v63q37 16 52.5 24t33.5 21.5t23 32.5t9 46.5t4 72.5v629 h-333v-629q0 -35 1 -55t3 -39.5t9.5 -30.5t14.5 -21t25 -18t34 -15t48 -18v-63h-588v63q32 13 45.5 19.5t31.5 18.5t23.5 22.5t12.5 30.5t8.5 44t1.5 62v629h-145zM498 1044h333v93q0 35 7 75q-18 -6 -37 -6q-58 0 -100 35t-42 94q0 68 54 119h-49q-166 0 -166 -289v-121z " />
<glyph horiz-adv-x="0" />
<glyph horiz-adv-x="0" />
<glyph horiz-adv-x="682" />
<glyph unicode="&#xd;" horiz-adv-x="0" />
<glyph unicode=" "  horiz-adv-x="368" />
<glyph unicode="&#x09;" horiz-adv-x="368" />
<glyph unicode="&#xa0;" horiz-adv-x="368" />
<glyph unicode="!" horiz-adv-x="624" d="M123 158q0 78 55 132t133 54t133.5 -54t55.5 -132t-55.5 -132.5t-133.5 -54.5t-133 54.5t-55 132.5zM135 1413h354q0 -159 -26.5 -320.5t-61 -331t-45.5 -304.5h-90q-11 135 -45 305t-60 331t-26 320z" />
<glyph unicode="&#x22;" horiz-adv-x="839" d="M74 1303q0 58 42 98.5t101 40.5q57 0 98 -40.5t41 -98.5q0 -36 -24.5 -111t-51.5 -170t-30 -176h-66q-3 81 -31 176t-53.5 170t-25.5 111zM481 1303q0 58 42.5 98.5t101.5 40.5q57 0 98 -40.5t41 -98.5q0 -36 -25 -111t-52 -170t-30 -176h-65q-3 81 -31 176t-54 170 t-26 111z" />
<glyph unicode="#" horiz-adv-x="1167" d="M123 469v98h217l49 279h-266v98h285l81 469h99l-82 -469h237l82 469h99l-82 -469h202v-98h-221l-49 -279h270v-98h-286l-82 -469h-98l81 469h-237l-82 -469h-98l82 469h-201zM438 567h238l49 279h-238z" />
<glyph unicode="$" d="M100 61v340h103q78 -148 144 -219t155 -82v455q-6 3 -72 43q-53 32 -81.5 51.5t-73 52t-69.5 61t-51 66t-37.5 80.5t-11.5 92q0 155 111.5 261t284.5 131v151h135v-145q151 -9 336 -82v-268h-101q-66 104 -120.5 154.5t-114.5 62.5v-422l61 -33q45 -27 71.5 -43t66.5 -44 t64 -50.5t52 -55.5t43.5 -65.5t26 -74t10.5 -87.5q0 -163 -105.5 -274t-289.5 -137v-183h-135v174q-111 3 -222.5 27.5t-179.5 62.5zM385 1106q0 -103 117 -178v325q-55 -15 -86 -55t-31 -92zM637 121q54 24 86.5 66.5t32.5 95.5q0 103 -119 186v-348z" />
<glyph unicode="%" horiz-adv-x="1722" d="M123 958q0 108 53 219t149.5 188t206.5 77q54 0 96 -14.5t71.5 -35.5t59.5 -42t74.5 -35.5t102.5 -14.5q202 0 377 199h133l-1040 -1595h-150l920 1401l-9 2q-4 -2 -20 -12.5t-21.5 -14t-20.5 -12.5t-22 -12.5t-21.5 -11t-23.5 -10.5t-22.5 -8t-24.5 -7t-24.5 -3.5 t-26.5 -1.5q-81 0 -154 31q17 -46 17 -121q0 -60 -16 -128t-48 -133.5t-75 -119t-103 -86t-125 -32.5q-137 0 -225 96.5t-88 236.5zM358 926q0 -39 10.5 -76.5t37 -66.5t63.5 -29q54 0 99.5 36t73.5 91.5t43 118t15 120.5q0 39 -13.5 81.5t-45 76t-72.5 33.5 q-64 0 -114 -63.5t-73.5 -150t-23.5 -171.5zM915 299q0 84 32 171.5t86 159t133.5 116.5t166.5 45q124 0 195 -88t71 -216q0 -82 -24.5 -169.5t-69.5 -165t-118.5 -127.5t-161.5 -50q-134 0 -222 94t-88 230zM1151 274q0 -39 10.5 -76.5t37 -66.5t63.5 -29q71 0 126 61.5 t80 143.5t25 162q0 64 -35.5 127t-95.5 63q-64 0 -114 -63.5t-73.5 -150t-23.5 -171.5z" />
<glyph unicode="&#x26;" horiz-adv-x="1589" d="M61 348q0 124 83 216t268 194q-117 149 -117 317q0 155 117.5 261t320.5 106q169 0 270 -77t101 -206q0 -109 -78.5 -196t-241.5 -175l263 -305q61 92 61 158q0 42 -27.5 63.5t-89.5 30.5v70h561v-68q-28 -9 -55 -22t-48 -25.5t-48 -36.5t-44 -39.5t-49 -51t-48.5 -54.5 t-56 -66t-60.5 -71q141 -155 228 -221t188 -87v-63h-492q-32 25 -55.5 50.5t-75.5 90.5q-201 -172 -451 -172q-86 0 -158 22.5t-120 59.5t-82 86.5t-49 102.5t-15 108zM379 457q0 -115 80.5 -199t187.5 -84q103 0 195 78l-338 397q-65 -40 -95 -83.5t-30 -108.5zM586 1149 q0 -120 110 -258q75 51 109.5 108.5t34.5 135.5q0 86 -36 128t-89 42q-56 0 -92.5 -43t-36.5 -113z" />
<glyph unicode="'" horiz-adv-x="430" d="M74 1303q0 58 42 98.5t101 40.5q57 0 98 -40.5t41 -98.5q0 -36 -24.5 -111t-51.5 -170t-30 -176h-66q-3 81 -31 176t-53.5 170t-25.5 111z" />
<glyph unicode="(" horiz-adv-x="729" d="M156 606q0 243 128 489t359 453h88q-117 -178 -182.5 -436.5t-65.5 -529.5q0 -268 64 -522.5t184 -428.5h-88q-50 48 -106 111.5t-126.5 164t-125 205.5t-92 237t-37.5 257z" />
<glyph unicode=")" horiz-adv-x="729" d="M-2 -369q120 174 184 428.5t64 522.5q0 271 -65.5 529.5t-182.5 436.5h88q231 -207 359 -453t128 -489q0 -125 -37.5 -257t-92 -237t-125 -205.5t-126.5 -164t-106 -111.5h-88z" />
<glyph unicode="*" horiz-adv-x="808" d="M41 1073l72 201l272 -184l-84 323h213l-88 -323l274 184l68 -201l-322 -35l248 -188l-176 -127l-115 287l-114 -287l-176 125l249 190z" />
<glyph unicode="+" horiz-adv-x="1167" d="M147 498v157h357v369h158v-369h358v-157h-358v-367h-158v367h-357z" />
<glyph unicode="," horiz-adv-x="518" d="M74 -322q51 72 76.5 151.5t25.5 145.5q0 28 -13.5 53.5t-29.5 43.5t-29.5 48.5t-13.5 67.5q0 66 47 111t111 45q78 0 127 -53.5t49 -134.5q0 -107 -83.5 -247t-178.5 -231h-88z" />
<glyph unicode="-" horiz-adv-x="724" d="M53 508v199h619v-199h-619z" />
<glyph unicode="." horiz-adv-x="518" d="M70 158q0 78 55 132t133 54t133 -54t55 -132t-55 -132.5t-133 -54.5t-133 54.5t-55 132.5z" />
<glyph unicode="/" horiz-adv-x="845" d="M6 -31l651 1473h183l-652 -1473h-182z" />
<glyph unicode="0" d="M59 682q0 226 61 397.5t176.5 267t270.5 95.5q235 0 369.5 -200t134.5 -542q0 -217 -57.5 -380.5t-172.5 -257t-276 -93.5q-242 0 -374 192.5t-132 520.5zM412 678q0 -296 33.5 -443t127.5 -147q45 0 75 40t45 120t20.5 171.5t5.5 223.5q0 348 -34 514t-118 166 t-119.5 -164t-35.5 -481z" />
<glyph unicode="1" d="M190 1069q137 43 298.5 151t267.5 216v-1155q0 -74 12.5 -111.5t41 -59t95.5 -47.5v-63h-643v66q111 37 138.5 72.5t27.5 142.5v761q-134 -51 -221 -69z" />
<glyph unicode="2" d="M47 1096q0 134 145.5 240t360.5 106q115 0 216 -44t165.5 -131.5t64.5 -199.5q0 -73 -37.5 -148.5t-101 -145t-129 -131t-140.5 -132.5t-116 -123l-72 -90h598l-30 -297h-903v76l401 512q184 235 184 456q0 124 -72 187t-186 63q-44 0 -98.5 -11.5t-77.5 -31.5 q89 -5 145 -51t56 -129q0 -71 -53 -124.5t-127 -53.5q-80 0 -136.5 52.5t-56.5 150.5z" />
<glyph unicode="3" d="M49 233q0 77 53 127t131 50q75 0 127 -48t52 -126q0 -105 -90 -158q28 -17 77 -17q125 0 211 82.5t86 231.5q0 76 -31 136.5t-84.5 98t-118 59.5t-138.5 29l-19 35l287 391h-459v289h817v-33l-329 -428q76 -20 148.5 -62t131.5 -101.5t95 -141t36 -170.5 q0 -96 -35.5 -179t-95 -142.5t-138 -102.5t-165.5 -63.5t-176 -20.5q-166 0 -269.5 70.5t-103.5 193.5z" />
<glyph unicode="4" d="M16 377v151l629 885h260v-838h137v-198h-137v-96q0 -75 11 -111t40 -58.5t97 -48.5v-63h-637v63q111 37 139.5 74t28.5 144v96h-568zM217 575h367v519z" />
<glyph unicode="5" d="M63 225q0 76 55.5 126t129.5 50q78 0 128 -45.5t50 -126.5q0 -47 -23 -82.5t-63 -72.5v-8q35 -9 70 -9q118 0 196 101t78 258q0 146 -75 223.5t-191 77.5q-98 0 -197 -68l-65 25l90 739h676v-289h-568l-37 -307q132 70 248 70q196 0 324.5 -121t128.5 -313 q0 -93 -36.5 -174t-96.5 -136.5t-135.5 -95.5t-153.5 -59t-152 -19q-178 0 -279.5 65.5t-101.5 190.5z" />
<glyph unicode="6" d="M76 573q0 172 70.5 327.5t188 267t270.5 184t319 90.5v-111q-181 -35 -304.5 -163t-170.5 -332q90 53 208 53q192 0 306 -102t114 -300q0 -149 -57.5 -265.5t-169.5 -184.5t-262 -68q-236 0 -374 161t-138 443zM418 573q0 -475 178 -475q82 0 120 83.5t38 226.5 q0 171 -59.5 261.5t-155.5 90.5q-43 0 -111 -27q-10 -64 -10 -160z" />
<glyph unicode="7" d="M80 1110v303h960v-70q-178 -312 -304.5 -675t-174.5 -668h-328q36 139 107 294.5t137.5 268.5t167 279.5t156.5 267.5h-721z" />
<glyph unicode="8" d="M45 332q0 224 313 344q-144 85 -216 179t-72 206q0 109 68 197t181 136t246 48q199 0 336 -103t137 -235q0 -99 -80.5 -180t-203.5 -125q57 -31 100.5 -58.5t88 -66t73.5 -79t47 -93t18 -111.5q0 -94 -46.5 -175t-122.5 -134t-172 -83t-197 -30q-88 0 -174.5 23.5 t-160 67t-118.5 114.5t-45 158zM350 346q0 -106 57.5 -178t155.5 -72q89 0 145 56t56 155q0 91 -56.5 154t-170.5 119l-72 34q-48 -53 -81.5 -124t-33.5 -144zM387 1126q0 -49 15 -87t50.5 -71t77.5 -59t111 -61q78 92 78 235q0 104 -47 168t-125 64q-73 0 -116.5 -51 t-43.5 -138z" />
<glyph unicode="9" d="M51 936q0 145 57.5 259t169 180.5t259.5 66.5q235 0 377.5 -163t142.5 -439q0 -176 -69 -332t-184.5 -266.5t-266 -182t-314.5 -90.5l-4 113q178 32 300.5 159t168.5 326q-95 -45 -217 -45q-185 0 -302.5 109.5t-117.5 304.5zM375 1016q0 -171 64 -269t173 -98 q40 0 95 19q10 78 10 163q0 101 -9.5 184t-31 152t-59 107.5t-89.5 38.5q-153 0 -153 -297z" />
<glyph unicode=":" horiz-adv-x="518" d="M70 158q0 78 55 132t133 54t133 -54t55 -132t-55 -132.5t-133 -54.5t-133 54.5t-55 132.5zM70 883q0 77 55 131.5t133 54.5t133 -54.5t55 -131.5q0 -78 -55 -132.5t-133 -54.5t-133 54.5t-55 132.5z" />
<glyph unicode=";" horiz-adv-x="518" d="M70 883q0 77 55 131.5t133 54.5t133 -54.5t55 -131.5q0 -78 -55 -132.5t-133 -54.5t-133 54.5t-55 132.5zM74 -322q51 72 76.5 151.5t25.5 145.5q0 28 -13.5 53.5t-29.5 43.5t-29.5 48.5t-13.5 67.5q0 66 47 111t111 45q78 0 127 -53.5t49 -134.5q0 -107 -83.5 -247 t-178.5 -231h-88z" />
<glyph unicode="&#x3c;" horiz-adv-x="1107" d="M129 494v168l850 378v-170l-637 -297l637 -288v-170z" />
<glyph unicode="=" horiz-adv-x="1167" d="M158 346v158h852v-158h-852zM158 651v158h852v-158h-852z" />
<glyph unicode="&#x3e;" horiz-adv-x="1107" d="M129 115v159l637 299l-637 308v159l850 -378v-168z" />
<glyph unicode="?" horiz-adv-x="966" d="M53 1135q0 135 128.5 221t312.5 86q188 0 301.5 -86.5t113.5 -245.5q0 -38 -8 -74.5t-18.5 -65t-32 -60.5t-38 -53t-47.5 -52t-49 -47.5t-54 -48.5q-76 -68 -106.5 -119t-33.5 -133h-90q0 89 16.5 164.5t40 127.5t47 100.5t40 108.5t16.5 127q0 123 -64.5 182.5 t-160.5 59.5q-80 0 -129 -24q76 -20 120.5 -66t44.5 -115q0 -77 -49 -122.5t-125 -45.5q-77 0 -126.5 46t-49.5 135zM291 158q0 77 54.5 129.5t131.5 52.5t132 -52.5t55 -129.5q0 -80 -54.5 -132.5t-132.5 -52.5t-132 52.5t-54 132.5z" />
<glyph unicode="@" horiz-adv-x="1683" d="M53 467q0 153 65 293t175.5 243.5t267.5 165.5t332 62q204 0 374.5 -79.5t271.5 -225t101 -326.5q0 -107 -40 -198.5t-103.5 -153t-144 -105t-160.5 -63t-154 -19.5q-104 0 -104 56q0 30 8 71l31 148q-156 -275 -301 -275q-100 0 -164 73t-64 214q0 164 73.5 297.5 t203 210t289.5 76.5q71 0 168 -27l112 15l8 -5l-104 -665q-4 -32 -4 -39q0 -35 20 -35q23 0 54 14t67 46t66.5 76.5t50.5 113.5t20 149q0 163 -73 288.5t-199.5 193t-284.5 67.5q-133 0 -249 -54t-195.5 -144t-124.5 -209.5t-45 -249.5q0 -153 52 -272t141 -191 t200.5 -108.5t237.5 -36.5q90 0 193.5 23.5t168.5 62.5l10 -15q-81 -64 -198 -110.5t-234 -46.5q-154 0 -299.5 49t-260.5 136t-185 220t-70 289zM694 365q0 -72 19 -108t51 -36q39 0 98.5 64t118.5 168l12 20l56 367q-24 4 -52 4q-72 0 -131.5 -43.5t-96 -113.5t-56 -153.5 t-19.5 -168.5z" />
<glyph unicode="A" horiz-adv-x="1525" d="M4 0v63q51 14 81.5 33.5t67 72.5t72.5 146t86 252l269 846h387l315 -985q47 -147 85 -224.5t71 -106t84 -42.5v-55h-641v63q57 13 83.5 35.5t26.5 69.5q0 65 -61 264l-27 86h-420q-73 -247 -73 -332q0 -58 30 -80.5t107 -42.5v-63h-543zM528 672h330l-158 553h-10z" />
<glyph unicode="B" horiz-adv-x="1343" d="M39 0v63q100 26 132 72.5t32 163.5v836q0 79 -14.5 118.5t-46 58.5t-103.5 38v63h606q89 0 167.5 -10t152 -35.5t126 -64.5t84 -100.5t31.5 -139.5q0 -207 -256 -305q138 -32 240 -126t102 -220q0 -87 -40 -158.5t-105 -117.5t-150 -77.5t-171.5 -45t-174.5 -13.5h-612z M549 131h98q117 0 201 71t84 191q0 133 -87.5 202t-211.5 69h-84v-533zM549 786h63q113 0 180.5 74.5t67.5 196.5q0 112 -68 168.5t-192 56.5h-51v-496z" />
<glyph unicode="C" horiz-adv-x="1497" d="M80 690q0 154 48.5 281t129.5 213t191 145.5t230 86t249 26.5q111 0 249 -27t209 -59v-309h-100q-77 144 -166.5 205t-218.5 61q-100 0 -180 -32t-143 -100t-97.5 -187t-34.5 -281q0 -613 488 -613q69 0 117.5 10.5t98 41.5t93 90t88.5 153h103l-29 -336 q-71 -37 -211 -63.5t-266 -26.5q-144 0 -270.5 27t-233 84.5t-183 141t-119 203t-42.5 265.5z" />
<glyph unicode="D" horiz-adv-x="1667" d="M53 0v63q68 25 97 47t41 59.5t12 113.5v852q0 38 -2 63.5t-9 47t-16 34.5t-28 26t-39.5 22t-55.5 22v63h701q172 0 319 -41.5t260 -122t177.5 -211t64.5 -297.5q0 -224 -111.5 -394t-301.5 -258.5t-429 -88.5h-680zM549 131h180q119 0 212 44.5t151 124t88 185.5t30 232 q0 265 -124.5 415t-335.5 150h-201v-1151z" />
<glyph unicode="E" horiz-adv-x="1208" d="M53 0v63q88 33 110 50q33 26 38 92q2 23 2 57v893q0 56 -4.5 85.5t-23 50t-41.5 30.5t-74 27q-5 1 -7 2v63h1006v-313h-78q-41 52 -61 77.5t-47 50t-38.5 32.5t-41 15t-48 7h-65.5h-131v-496h153q72 0 111 28t92 116h68v-406h-66q-53 85 -92.5 111.5t-112.5 26.5h-153 v-531h133h67t54.5 5.5t43 7.5t39.5 18.5t37 24.5t42 40t48 50t62 69h80l-43 -346h-1059z" />
<glyph unicode="F" horiz-adv-x="1159" d="M53 0v63q94 35 122 81.5t28 158.5v811q0 112 -28 156.5t-122 79.5v63h1034v-313h-77q-33 41 -47.5 60.5t-38.5 44.5t-32.5 33.5t-32 20.5t-33.5 14t-40.5 5.5t-49.5 3.5h-64h-123v-516h186q76 0 115.5 28.5t93.5 116.5h66v-411h-64q-54 85 -94.5 113t-116.5 28h-186v-338 q0 -109 36.5 -157t145.5 -83v-63h-678z" />
<glyph unicode="G" horiz-adv-x="1605" d="M82 698q0 154 55.5 282.5t144 212t202.5 141.5t227.5 83t222.5 25q128 0 277.5 -31t218.5 -61v-342h-91q-93 160 -191 231.5t-220 71.5q-105 0 -190.5 -34t-152 -103t-103 -184t-36.5 -267q0 -166 38 -286.5t107.5 -190t156.5 -101.5t196 -32q74 0 178 32v283 q0 93 -27.5 135t-117.5 76v66h588v-66q-35 -16 -50.5 -25t-32 -23.5t-22 -35t-9 -49.5t-3.5 -76v-364q-116 -41 -280.5 -69t-293.5 -28q-115 0 -225.5 25.5t-214 83t-181.5 140.5t-124.5 207t-46.5 273z" />
<glyph unicode="H" horiz-adv-x="1654" d="M53 0v63q68 25 97 47t41 59.5t12 113.5v852q0 38 -2 63.5t-9 47t-16 34.5t-28 26t-39.5 22t-55.5 22v63h645v-63q-69 -25 -97 -45.5t-40 -57t-12 -112.5v-338h557v338q0 57 -4.5 88t-23 55t-44 37.5t-78.5 32.5v65h646v-63q-52 -20 -77 -33t-44 -37t-24 -56t-5 -89v-852 q0 -75 12.5 -113.5t41.5 -60t96 -46.5v-63h-646v66q69 25 98 46.5t40.5 58.5t11.5 112v364h-557v-364q0 -58 5 -90t22.5 -57t44 -39.5t77.5 -33.5v-63h-645z" />
<glyph unicode="I" horiz-adv-x="751" d="M51 0v63q53 19 79 32.5t44.5 38t23.5 56t5 89.5v856q0 76 -12.5 112.5t-41 57t-98.5 45.5v63h649v-63q-70 -25 -98.5 -45.5t-40.5 -57t-12 -112.5v-856q0 -76 12 -112.5t41 -57.5t98 -46v-63h-649z" />
<glyph unicode="J" horiz-adv-x="743" d="M31 -354q172 112 172 358v1131q0 76 -12.5 112.5t-41 57t-98.5 45.5v63h649v-63q-70 -25 -98.5 -45.5t-40.5 -57t-12 -112.5v-981q0 -107 -34.5 -198t-86 -151t-123 -108t-134 -74t-130.5 -45z" />
<glyph unicode="K" horiz-adv-x="1533" d="M51 0v63q53 19 79 32.5t44.5 38t23.5 56t5 89.5v856q0 76 -12.5 112.5t-41 57t-98.5 45.5v63h649v-63q-70 -25 -98.5 -45.5t-40.5 -57t-12 -112.5v-480l352 412q55 65 80 108.5t25 79.5q0 34 -29.5 54t-97.5 41v63h622v-63q-115 -42 -191.5 -97t-201.5 -194l-176 -195 l342 -545q73 -118 132 -167.5t153 -88.5v-63h-685v66q54 8 79.5 21.5t25.5 41.5q0 17 -16.5 54t-48.5 93.5t-62 105.5t-75.5 124t-69.5 115l-158 -158v-184q0 -76 12 -112.5t41 -57.5t98 -46v-63h-649z" />
<glyph unicode="L" horiz-adv-x="1157" d="M53 0v63q94 35 122 79.5t28 156.5v815q0 112 -28 156.5t-122 79.5v63h645v-63q-95 -35 -122 -79t-27 -157v-983h131q49 0 75.5 1t59 12t48.5 20.5t50 43.5t58 63t78 96h77l-43 -367h-1030z" />
<glyph unicode="M" horiz-adv-x="2043" d="M25 0v63q45 16 73 35t46 40.5t28.5 62t16 81t10.5 115.5l49 682q0 7 3 49t3 62q0 60 -25.5 85t-126.5 75v63h607l329 -1012l334 1012h586v-63q-91 -32 -121.5 -71t-30.5 -122q0 -49 6 -117l43 -647q8 -124 23 -181.5t43.5 -86.5t97.5 -62v-63h-637v63q86 31 113 67.5 t27 123.5q0 25 -4 127l-41 825h-9l-403 -1206h-234l-378 1206h-9l-51 -813q0 -8 -3 -47.5t-3 -56.5q0 -106 30 -151.5t124 -74.5v-63h-516z" />
<glyph unicode="N" horiz-adv-x="1738" d="M33 1350v63h534l772 -938v467q0 155 -16 234.5t-47 112.5t-100 61v63h512v-63q-52 -21 -78.5 -41t-48 -64t-28.5 -114t-7 -189v-952h-230l-895 1116v-631q0 -118 7.5 -189.5t29 -116t49 -65.5t78.5 -41v-63h-512v63q52 20 79.5 40.5t49 65.5t28.5 116t7 190v674 q0 68 -41.5 118t-142.5 83z" />
<glyph unicode="O" horiz-adv-x="1753" d="M82 705q0 140 44 260.5t119.5 206.5t176 148t214.5 92t234 30t234 -28.5t215 -88t177 -143.5t120.5 -204t44.5 -261q0 -142 -44 -264.5t-119.5 -210t-176.5 -150t-215.5 -93t-235.5 -30.5q-124 0 -238.5 28.5t-215 88.5t-174.5 145.5t-117 207t-43 266.5zM446 705 q0 -280 112 -442.5t312 -162.5t313 162.5t113 442.5q0 279 -112.5 443.5t-313.5 164.5q-202 0 -313 -161.5t-111 -446.5z" />
<glyph unicode="P" horiz-adv-x="1300" d="M53 0v63q68 25 97 47t41 59.5t12 113.5v852q0 38 -2 63.5t-9 47t-16 34.5t-28 26t-39.5 22t-55.5 22v63h652q288 0 415 -99t127 -296q0 -214 -143 -325t-416 -111h-139v-299q0 -106 34 -145t148 -75v-63h-678zM549 713h88q76 0 131.5 27.5t84 74t41.5 97t13 108.5 q0 54 -13 98.5t-41 82.5t-79.5 59.5t-122.5 21.5h-102v-569z" />
<glyph unicode="Q" horiz-adv-x="1753" d="M84 705q0 134 44 252.5t120.5 206t176.5 151t215 95.5t234 32q118 0 232.5 -31t215 -93.5t177 -149t120.5 -205.5t44 -254q0 -171 -67.5 -313.5t-178 -235.5t-254.5 -142q319 -130 564.5 -186.5t484.5 -56.5q153 0 278 39v-29q-17 -27 -41 -58.5t-68.5 -73.5t-93.5 -74.5 t-117.5 -55.5t-139.5 -23q-126 0 -364 90.5t-503 253.5l-209 129q-46 -4 -80 -4q-155 0 -296.5 49t-252 140t-176 232.5t-65.5 314.5zM449 705q0 -176 49.5 -313t147 -216.5t228.5 -79.5q130 0 227 79.5t147 216.5t50 313q0 179 -49 316t-146 215.5t-229 78.5 q-133 0 -230 -78.5t-146 -215.5t-49 -316z" />
<glyph unicode="R" horiz-adv-x="1404" d="M55 0v63q68 25 97 47t41 59.5t12 113.5v852q0 38 -2 63.5t-9 47t-16 34.5t-28 26t-39.5 22t-55.5 22v63h623q278 0 426.5 -96t148.5 -287q0 -75 -29.5 -137.5t-79.5 -105.5t-105.5 -71.5t-118.5 -45.5l303 -439q61 -89 103.5 -119.5t119.5 -48.5v-63h-215 q-73 0 -110.5 0.5t-78 10t-57 18t-44 37t-43.5 54.5t-50 83l-248 411h-51v-331q0 -76 12 -113.5t41 -59.5t98 -47v-63h-645zM549 739h63q59 0 108.5 13.5t92.5 43.5t67.5 87.5t24.5 136.5q0 126 -69.5 194t-176.5 68h-110v-543z" />
<glyph unicode="S" horiz-adv-x="1107" d="M98 1042q0 176 142 288t346 112q167 0 368 -84v-268h-100q-79 127 -139 175t-140 48q-76 0 -125 -47t-49 -119q0 -56 34.5 -106.5t89.5 -91.5t121 -82t132.5 -88t121.5 -100t89.5 -127.5t34.5 -160.5q0 -186 -139 -304t-369 -118q-112 0 -226.5 26t-187.5 66v340h103 q87 -164 153 -232.5t164 -68.5q82 0 140.5 53t58.5 134q0 55 -34.5 106.5t-89.5 94.5t-121 86.5t-132.5 91.5t-121.5 101t-89.5 124t-34.5 151z" />
<glyph unicode="T" horiz-adv-x="1359" d="M66 1100v313h1239v-313h-99q-16 20 -37.5 49t-30.5 40.5t-24.5 30t-22.5 24.5t-21.5 16t-25 12t-28.5 5.5t-36.5 4t-45.5 0.5h-84v-999q0 -58 5 -90t22.5 -57t44 -39.5t77.5 -33.5v-63h-643v63q67 25 96 47t40.5 59.5t11.5 113.5v999h-84q-27 0 -45.5 -0.5t-37 -4 t-28.5 -5.5t-25 -12t-21.5 -16t-22.5 -24.5t-24.5 -30t-31 -40.5t-37.5 -49h-81z" />
<glyph unicode="U" horiz-adv-x="1611" d="M55 1350v63h645v-63q-95 -35 -122 -79t-27 -157v-719q0 -117 81 -187.5t240 -70.5q168 0 256.5 73t88.5 218v514q0 96 -7 161.5t-18 106t-35.5 68t-47 41t-65.5 31.5v63h531v-63q-44 -18 -67 -31.5t-47.5 -40.5t-35 -67.5t-17.5 -106t-7 -162.5v-545q0 -135 -76 -233 t-206 -146.5t-300 -48.5q-179 0 -315.5 46.5t-217.5 144.5t-81 237v717q0 112 -28 156.5t-122 79.5z" />
<glyph unicode="V" horiz-adv-x="1525" d="M4 1358v55h635v-63q-58 -13 -82.5 -33t-24.5 -66q0 -88 84 -348l211 -667h9l196 630q84 268 84 361q0 58 -30 80.5t-107 42.5v63h543v-63q-66 -23 -103.5 -57t-87 -137t-117.5 -310l-280 -846h-363l-327 987q-36 108 -66 176.5t-59.5 107t-53.5 55.5t-61 32z" />
<glyph unicode="W" horiz-adv-x="2242" d="M20 1352v61h611v-63q-56 -14 -77.5 -34.5t-21.5 -68.5q0 -32 10.5 -90t20 -98t35.5 -144l160 -663l178 614q57 197 57 314q0 32 -4 55.5t-16 40.5t-21 27.5t-31.5 20t-34 13.5t-40.5 13v63h629v-63q-68 -20 -97.5 -47t-29.5 -84q0 -45 18 -115l207 -819l178 581 q61 197 61 320q0 44 -9.5 73.5t-32.5 47t-41.5 25t-57.5 18.5v63h559v-63q-42 -16 -70 -36t-66.5 -70.5t-79.5 -148t-89 -247.5l-270 -848h-330l-229 852l-258 -852h-349l-233 866q-52 193 -92 296t-69.5 138t-74.5 52z" />
<glyph unicode="X" horiz-adv-x="1478" d="M16 0v63q95 50 154 105.5t147 173.5l263 348l-285 455q-84 133 -248 205v63h680v-65q-65 -19 -91 -37t-26 -47q0 -53 90 -193l113 -170l125 186q76 115 76 170q0 34 -26.5 50.5t-96.5 40.5v65h536v-63q-98 -44 -150.5 -93.5t-146.5 -179.5l-229 -315l313 -494 q45 -70 100.5 -115.5t147.5 -89.5v-63h-684v63q71 29 95 45.5t24 43.5q0 38 -37 94l-192 305l-115 -164q-117 -163 -117 -219q0 -31 26.5 -51t96.5 -54v-63h-543z" />
<glyph unicode="Y" horiz-adv-x="1361" d="M8 1352v61h649v-63q-57 -15 -80.5 -31.5t-23.5 -50.5q0 -23 12 -61.5t25.5 -70.5t48.5 -114l115 -268l114 272q31 73 42 101.5t21.5 65t10.5 60.5q0 42 -29 61t-98 36v63h533v-63q-91 -28 -163 -99.5t-145 -240.5l-190 -432v-295q0 -77 11.5 -114t40.5 -59t97 -47v-63 h-643v63q67 25 95.5 47t40.5 59.5t12 113.5v292l-205 437q-35 75 -68 130t-57 87t-56 57.5t-52 36.5t-58 29z" />
<glyph unicode="Z" horiz-adv-x="1191" d="M41 0v33l686 1243h-229q-53 0 -76.5 -2t-52.5 -9t-53.5 -26t-58 -47.5t-89.5 -80.5q-12 -11 -18 -17h-84l43 319h1026v-33l-676 -1233h194h66.5t52.5 5t43.5 8.5t39 21t40 30t44.5 48t54 64.5t68 88h94l-43 -412h-1071z" />
<glyph unicode="[" horiz-adv-x="776" d="M190 -287v1835h498v-86h-192v-1663h192v-86h-498z" />
<glyph unicode="\" horiz-adv-x="845" d="M6 1434h162l672 -1457h-162z" />
<glyph unicode="]" horiz-adv-x="776" d="M88 -201h193v1663h-193v86h498v-1835h-498v86z" />
<glyph unicode="^" horiz-adv-x="874" d="M129 928l227 485h158l231 -485h-61l-248 291l-246 -291h-61z" />
<glyph unicode="_" horiz-adv-x="942" d="M76 -164h790v-158h-790v158z" />
<glyph unicode="`" horiz-adv-x="514" d="M33 1307l94 174l365 -269l-31 -59z" />
<glyph unicode="a" horiz-adv-x="1085" d="M39 231q0 346 582 398v98q0 110 -61 163.5t-171 53.5q-52 0 -108 -18q46 -21 70 -47t24 -76q0 -66 -43 -105t-107 -39q-62 0 -106.5 39t-44.5 103q0 79 71 142t174.5 94.5t212.5 31.5q213 0 312.5 -89.5t99.5 -283.5v-401q0 -71 14.5 -106.5t41 -48t81.5 -19.5v-35 q-148 -106 -270 -106q-76 0 -120.5 31t-65.5 95q-151 -131 -314 -131q-109 0 -190.5 72.5t-81.5 183.5zM365 315q0 -72 48 -112.5t109 -40.5q54 0 99 20v316q-28 4 -43 4q-39 0 -73.5 -8.5t-67.5 -27.5t-52.5 -58t-19.5 -93z" />
<glyph unicode="b" horiz-adv-x="1271" d="M0 1401v61q110 8 243.5 31.5t213.5 50.5h20v-633q164 158 326 158q181 0 292 -132.5t111 -358.5q0 -120 -39.5 -222t-103 -170.5t-145 -117.5t-165 -71t-163.5 -22q-92 0 -237 24.5t-210 45.5v1149q0 116 -21.5 145.5t-112.5 58.5q-2 1 -3 1t-3 1t-3 1zM477 154 q60 -31 121 -31q53 0 101 25.5t87 73t62.5 125.5t23.5 175q0 168 -73 258t-174 90q-80 0 -148 -41v-675z" />
<glyph unicode="c" horiz-adv-x="989" d="M59 494q0 141 45 253t122.5 181t176 105t211.5 36q136 0 232 -63t96 -164q0 -84 -47.5 -136.5t-118.5 -52.5q-72 0 -121 45.5t-49 122.5q0 66 64 137v9q-131 0 -207 -92.5t-76 -284.5q0 -111 22.5 -188.5t65 -121t96.5 -62.5t125 -19q129 0 224 75l34 -41 q-19 -37 -54 -77.5t-87.5 -83t-128 -70t-158.5 -27.5q-95 0 -179.5 36t-148.5 101t-101.5 164t-37.5 218z" />
<glyph unicode="d" horiz-adv-x="1271" d="M63 469q0 110 32.5 207t87.5 167.5t127 122.5t153 77.5t162 25.5q87 0 159 -14v143q0 62 -5.5 95.5t-25.5 54t-43.5 29.5t-75.5 22q-6 1 -9 2v61q113 8 254 31.5t219 50.5h18v-1179q0 -52 3.5 -83t10.5 -55.5t25 -41t39.5 -28.5t62.5 -30v-61q-124 -12 -247.5 -37 t-202.5 -54h-19v160h-8q-143 -160 -325 -160q-77 0 -147 34t-125 95.5t-87.5 156t-32.5 208.5zM395 561q0 -188 77.5 -285.5t195.5 -97.5q60 0 116 27v698q-23 20 -61 33.5t-76 13.5q-113 0 -182.5 -105.5t-69.5 -283.5z" />
<glyph unicode="e" horiz-adv-x="1042" d="M63 502q0 129 41 237t111.5 179.5t164 111t198.5 39.5q395 0 395 -420v-102h-578q1 -97 25.5 -167t68 -108t95.5 -55.5t116 -17.5q77 0 150 27.5t115 60.5l39 -41q-30 -49 -67.5 -92t-92.5 -86t-129.5 -68t-159.5 -25q-224 0 -358 142t-134 385zM395 649l285 33 q-1 138 -32.5 198t-100.5 60q-149 0 -152 -291z" />
<glyph unicode="f" horiz-adv-x="700" d="M23 889l28 155h117v93q0 102 40.5 181.5t110.5 128t158 73t189 24.5q148 0 223.5 -53.5t75.5 -147.5q0 -65 -44 -106t-104 -41q-67 0 -108 33t-41 102q0 66 51 123h-47q-174 0 -174 -289v-121h194v-155h-194v-629q0 -33 2 -54.5t4.5 -39.5t12 -30.5t16.5 -21.5t28 -18 t35.5 -15t48.5 -18v-63h-600v63q32 13 45.5 19.5t31.5 18.5t23.5 22.5t12.5 30.5t8.5 44t1.5 62v629h-145z" />
<glyph unicode="g" horiz-adv-x="1024" d="M-39 -231q0 75 59 132t150 85q-64 55 -64 151q0 66 44 134t110 120q-207 103 -207 307q0 170 124.5 270.5t320.5 100.5q115 0 213 -45l348 45h20l-32 -178l-185 18q30 -28 54 -87t24 -115q0 -165 -125.5 -264t-316.5 -99q-79 0 -142 14q-34 -47 -34 -82q0 -24 22.5 -40 t65.5 -17l288 -14q80 -4 139 -19.5t104.5 -47t69 -83.5t23.5 -125q0 -95 -53.5 -174.5t-139.5 -129.5t-190 -77.5t-211 -27.5q-121 0 -230.5 31.5t-179 89.5t-69.5 127zM195 -188q0 -69 79 -107.5t228 -38.5q129 0 211 44.5t82 113.5q0 49 -35 69.5t-135 24.5l-293 14 q-42 3 -68 11q-69 -59 -69 -131zM375 707q0 -120 27 -179t96 -59q67 0 93.5 58.5t26.5 179.5q0 235 -120 235q-123 0 -123 -235z" />
<glyph unicode="h" horiz-adv-x="1300" d="M31 1401v61q110 8 243 31.5t213 50.5h19v-622q53 40 92.5 66t105.5 53.5t121 27.5q60 0 113 -20t97 -61.5t69.5 -113.5t25.5 -167v-447q0 -25 1.5 -44t2 -34t6 -27.5t7.5 -21t13 -18t15.5 -14t21.5 -13.5t24.5 -12.5t31.5 -14.5v-61h-557v61q36 18 49.5 26t30.5 22 t21.5 32.5t8 46t3.5 72.5v451q0 85 -42 129.5t-112 44.5q-79 0 -149 -41v-584q0 -33 2 -54.5t3.5 -39t10 -30.5t13.5 -21t23.5 -18t28.5 -15.5t40 -18.5v-63h-576v63q39 17 53 24.5t33 22t24 32.5t9 45.5t4 72.5v934q0 116 -21.5 145.5t-112.5 58.5q-2 1 -3 1t-3 1t-3 1z " />
<glyph unicode="i" horiz-adv-x="671" d="M41 926v61q109 8 238.5 31.5t207.5 50.5h21v-809q0 -38 1 -61.5t8.5 -44t12 -29.5t24 -22.5t30.5 -18.5t45 -21v-63h-566v63q34 16 45 21t30.5 18.5t24 22.5t12 29.5t8.5 44t1 61.5v449v44.5t-3 36.5t-3.5 29t-8 23.5t-9.5 18t-15 15t-17.5 13t-24 12t-27.5 11.5t-35 14z M172 1346q0 72 49.5 121t120.5 49q70 0 120 -49.5t50 -120.5t-50 -120.5t-120 -49.5q-71 0 -120.5 49t-49.5 121z" />
<glyph unicode="j" horiz-adv-x="647" d="M12 -432q73 48 118.5 151.5t45.5 243.5v746v44.5t-3 36.5t-3.5 29t-8 23.5t-9.5 18t-15 15t-17.5 13t-24 12t-27.5 11.5t-35 14v61q110 8 243.5 31.5t210.5 50.5h21v-987q0 -101 -32.5 -188t-81.5 -145.5t-116 -106.5t-126 -75t-123 -46zM162 1346q0 72 49.5 121 t120.5 49q70 0 120 -49.5t50 -120.5t-50 -120.5t-120 -49.5q-71 0 -120.5 49t-49.5 121z" />
<glyph unicode="k" horiz-adv-x="1286" d="M31 1415v47q110 8 243.5 31.5t210.5 50.5h19v-1288q0 -45 3.5 -73.5t9.5 -49t22 -35t33.5 -25t52.5 -26.5v-47h-576v47q57 26 79.5 44.5t33 54.5t10.5 110v942q0 44 -1 70.5t-9 49.5t-14 34t-27 24t-36.5 19t-53.5 20zM522 539l180 200q80 89 80 142q0 34 -27.5 53.5 t-99.5 40.5v69h588v-65q-68 -19 -106.5 -33.5t-90.5 -49.5t-96 -87l-147 -172l258 -387q61 -92 118 -131.5t124 -57.5v-61h-246q-46 0 -70 0.5t-54.5 4t-45.5 8.5t-37 17.5t-34.5 26t-32.5 39.5t-36.5 53.5t-41.5 71.5z" />
<glyph unicode="l" horiz-adv-x="653" d="M25 1401v61q110 8 243 31.5t213 50.5h17v-1284q0 -25 1.5 -43.5t1.5 -34t6 -28t7.5 -20.5t13 -17.5t15 -13.5t21.5 -13t24.5 -12l32.5 -15v-63h-576v63q32 13 45.5 19.5t31.5 18.5t23.5 22.5t12.5 30.5t8.5 44t1.5 62v934q0 116 -21.5 145.5t-112.5 58.5q-2 1 -3 1t-3 1 t-3 1z" />
<glyph unicode="m" horiz-adv-x="1929" d="M47 926v61q109 8 238 31.5t207 50.5h18v-154q193 154 321 154q89 0 161.5 -41t109.5 -131q60 60 166 116t190 56q60 0 112.5 -20t96 -61.5t69 -113.5t25.5 -167v-447q0 -38 1 -61.5t8 -44t12 -30.5t23 -23t31 -19t46 -21v-61h-557v61q35 17 49 25.5t30.5 22.5t21 32.5 t7.5 45.5t3 73v451q0 86 -37.5 130t-106.5 44q-37 0 -87.5 -13.5t-82.5 -31.5q15 -73 15 -133v-447q0 -38 1.5 -62t8.5 -44t12.5 -30.5t24 -23t31.5 -19t45 -20.5v-61h-560v61q29 14 42.5 20.5t29.5 19t21.5 23t11.5 30.5t7 44t1 62v451q0 174 -141 174q-89 0 -156 -41v-584 q0 -46 3 -72.5t7 -45t20.5 -32.5t30.5 -22t50 -25v-63h-557v63q34 16 45 21.5t30.5 18.5t23.5 22t11.5 29.5t8.5 44t1 61.5v449v44.5t-3 36.5t-3.5 29t-8 23.5t-9.5 18t-15 15t-17.5 13t-24 12t-27.5 11.5t-35 14z" />
<glyph unicode="n" horiz-adv-x="1314" d="M45 926v61q109 8 237.5 31.5t206.5 50.5h19v-154q191 152 330 152q48 0 91.5 -11.5t83.5 -38.5t69.5 -67.5t47 -102.5t17.5 -140v-447q0 -38 1 -62t8.5 -44t12.5 -30t23.5 -23t30.5 -19t45 -21v-61h-557v61q36 17 50 25.5t30.5 22.5t21 33t7.5 45.5t3 72.5v451 q0 84 -45 129t-116 45q-81 0 -148 -41v-584q0 -46 3 -72.5t7 -45t20.5 -32.5t30.5 -22t50 -25v-63h-557v63q34 16 45 21.5t30.5 18.5t23.5 22t11.5 29.5t8.5 44t1 61.5v449v44.5t-3 36.5t-3.5 29t-8 23.5t-9.5 18t-15 15t-17.5 13t-24 12t-27.5 11.5t-35 14z" />
<glyph unicode="o" horiz-adv-x="1234" d="M63 522q0 125 46 230t123.5 173t176.5 106t207 38t208 -38t177 -106t123.5 -173t46.5 -230q0 -160 -77.5 -287t-203.5 -194.5t-274 -67.5q-149 0 -274.5 67.5t-202 194.5t-76.5 287zM420 522q0 -420 196 -420q197 0 197 420q0 209 -51 313.5t-146 104.5q-196 0 -196 -418 z" />
<glyph unicode="p" horiz-adv-x="1296" d="M29 926v61q109 8 237.5 31.5t206.5 50.5h19v-168q3 3 21 19.5t24 22.5t25 22t29 23t29.5 20.5t34 20t36 16t40 13.5t42 7.5t46.5 3.5q125 0 218 -66t140.5 -176.5t47.5 -248.5q0 -122 -39.5 -224.5t-103.5 -171t-146.5 -116.5t-166.5 -69.5t-165 -21.5q-46 0 -100 7v-179 q0 -38 1 -61.5t9 -44t14 -30.5t28 -23t37.5 -19.5t55.5 -21.5v-64h-600v64q38 18 52.5 26t33.5 22.5t24 33t9 46t4 72.5v906v44.5t-3 36.5t-3.5 29t-8 23.5t-9.5 18t-15 15t-17.5 13t-24 12t-27.5 11.5t-35 14zM504 152q53 -29 110 -29q56 0 103 19t88 61t64.5 119t23.5 182 q0 173 -72.5 274t-177.5 101q-76 0 -139 -48v-679z" />
<glyph unicode="q" horiz-adv-x="1261" d="M66 463q0 134 48 249t127.5 192t182.5 121t213 44q48 0 155 -14.5t132 -14.5q59 0 157 29h37v-1253q0 -75 10 -111t33.5 -56.5t79.5 -45.5v-64h-600v64q68 27 95.5 46.5t39.5 55.5t12 111v319h-8q-63 -66 -144.5 -112t-172.5 -46q-77 0 -148 32.5t-126.5 92.5t-89 153.5 t-33.5 207.5zM395 551q0 -183 79.5 -278t195.5 -95q66 0 118 27v700q-70 45 -135 45q-117 0 -187.5 -105.5t-70.5 -293.5z" />
<glyph unicode="r" horiz-adv-x="921" d="M33 926v61q109 8 239 31.5t211 50.5h17v-172q48 61 121 116.5t137 55.5q70 0 119 -48t49 -122q0 -75 -44.5 -121.5t-115.5 -46.5q-28 0 -51.5 12t-39 29.5t-30 34.5t-31.5 29t-36 12q-45 0 -76 -25v-567q0 -38 1 -61.5t9 -43.5t14 -29.5t28 -21.5t37.5 -17.5t55.5 -19.5 v-63h-594v63q27 11 35.5 15t27 13t23 14t14.5 16t12 21.5t6 28t4.5 37.5t0.5 48v469q0 40 -1 64t-9 45t-14 31t-27 22.5t-37 18.5t-55 20z" />
<glyph unicode="s" horiz-adv-x="909" d="M68 326h94q65 -115 130.5 -168.5t143.5 -53.5q65 0 107.5 29t42.5 84q0 38 -28 70.5t-73 58t-99 51.5t-108 57t-99 68t-73 91.5t-28 121.5q0 144 117 239t286 95q72 0 163.5 -12t146.5 -33v-240h-86q-62 83 -115.5 119.5t-116.5 36.5q-57 0 -95 -24.5t-38 -71.5 q0 -38 29 -70t75 -57t101.5 -50t111 -56.5t101.5 -69t75 -95t29 -127.5q0 -157 -124 -250.5t-308 -93.5q-92 0 -188 15.5t-160 44.5z" />
<glyph unicode="t" horiz-adv-x="780" d="M41 895v92q120 43 189 112.5t141 200.5h114v-256h277v-165h-277v-549q0 -75 42 -120.5t108 -45.5q79 0 151 22l23 -24q-40 -59 -144.5 -118.5t-197.5 -59.5q-139 0 -222 77t-83 244v582z" />
<glyph unicode="u" horiz-adv-x="1261" d="M45 926v61q106 7 225.5 30.5t200.5 51.5h21v-704q0 -96 45.5 -141.5t113.5 -45.5q74 0 131 29v502v44.5t-3 36.5t-3.5 29t-8 23.5t-9.5 18t-15 15t-17.5 13t-24 12t-27.5 11.5t-35 14v61q109 8 238.5 31.5t207.5 50.5h21v-721q0 -62 3.5 -94t21.5 -56t39 -35t71 -32 q7 -3 10 -4v-61q-252 -23 -444 -91h-19v156q-51 -44 -89 -72t-103 -56t-127 -28q-301 0 -301 342v392q0 37 -1.5 61.5t-3 44.5t-10 33.5t-13.5 22.5t-23.5 19.5t-29.5 16t-42 19.5z" />
<glyph unicode="v" horiz-adv-x="1224" d="M12 979v65h594v-65q-58 -13 -81 -32t-23 -60q0 -44 22 -127l142 -561h8l106 333q74 229 74 324q0 58 -27.5 86t-87.5 37v65h473v-65q-68 -21 -111.5 -82.5t-103.5 -237.5l-225 -659h-350l-232 731q-40 126 -77.5 174.5t-100.5 73.5z" />
<glyph unicode="w" horiz-adv-x="1873" d="M14 979v65h576v-65q-61 -12 -84 -27.5t-23 -62.5q0 -57 17 -129l125 -496l235 780h268l222 -778l110 357q41 135 41 231q0 62 -27 88t-88 37v65h474v-65q-47 -15 -76.5 -41.5t-62 -91.5t-72.5 -187l-217 -659h-299l-211 733l-226 -733h-303l-209 731q-36 128 -71.5 175.5 t-98.5 72.5z" />
<glyph unicode="x" horiz-adv-x="1265" d="M14 0v63q81 23 152 81t180 200l135 176l-96 152q-39 61 -65.5 98.5t-66 83.5t-83 76.5t-92.5 48.5v65h622v-65q-53 -9 -73.5 -21t-20.5 -34q0 -50 62 -142l63 -98l14 21q109 165 109 217q0 24 -16.5 36.5t-55.5 20.5v65h451v-65q-83 -23 -150 -79.5t-174 -201.5l-98 -131 l211 -315q68 -101 111 -133.5t118 -55.5v-63h-618v63q98 12 98 52q0 34 -51 108l-121 180q-32 -50 -69.5 -105.5t-55.5 -81.5t-30.5 -52t-12.5 -45q0 -44 78 -56v-63h-455z" />
<glyph unicode="y" horiz-adv-x="1216" d="M14 979v65h592v-67q-52 -12 -74 -37t-22 -68q0 -14 3 -33.5t7 -36.5t11.5 -47.5t11.5 -49.5l119 -512h10l96 337q61 216 61 308q0 62 -24.5 96t-77.5 43v67h475v-63q-48 -20 -83.5 -61t-79 -136t-101.5 -268l-201 -600q-134 -395 -395 -395q-90 0 -141 46.5t-51 123.5 q0 66 41 111.5t106 45.5q137 0 149 -147q88 75 142 252l14 47h-182l-209 690q-23 75 -42 123t-33.5 77t-36 46.5t-37 24.5t-48.5 18z" />
<glyph unicode="z" horiz-adv-x="1042" d="M53 0v29l504 856h-115q-39 0 -65 -2t-60.5 -10.5t-64 -27.5t-55.5 -50l-47 -58h-62l41 307h842v-30l-492 -852h152q63 0 94.5 7t81 39t133.5 107h59l-41 -315h-905z" />
<glyph unicode="{" horiz-adv-x="649" d="M57 606v37q30 4 53 16.5t38 27.5t25.5 43.5t16 50.5t8 64t3 69t0.5 79v178q0 84 21 147t56 102.5t92 66t118.5 39t144.5 18.5v-28q-80 -21 -103.5 -93.5t-23.5 -253.5v-159q0 -73 -17 -130.5t-46 -97.5t-73.5 -71t-92.5 -50.5t-111 -35.5q63 -16 111 -35.5t92.5 -50.5 t73.5 -71t46 -97.5t17 -130.5v-160q0 -181 23.5 -253t103.5 -93v-29q-83 6 -144.5 18.5t-118.5 39t-92 66t-56 102.5t-21 147v178q0 52 -0.5 79t-3 69t-8 64t-16 50.5t-25.5 43.5t-38 27.5t-53 16.5z" />
<glyph unicode="|" horiz-adv-x="458" d="M170 -236v1780h119v-1780h-119z" />
<glyph unicode="}" horiz-adv-x="647" d="M16 -266q80 21 103.5 93t23.5 253v160q0 73 17 130.5t46 97.5t73.5 71t92.5 50.5t111 35.5q-63 16 -111 35.5t-92.5 50.5t-73.5 71t-46 97.5t-17 130.5v159q0 181 -23.5 253.5t-103.5 93.5v28q83 -6 144.5 -18.5t118.5 -39t92.5 -66t56.5 -102.5t21 -147v-178 q0 -74 1 -109.5t8 -88t21.5 -77.5t42.5 -47t70 -28v-37q-42 -6 -70 -28t-42.5 -47t-21.5 -77.5t-8 -88t-1 -109.5v-178q0 -84 -21 -147t-56.5 -102.5t-92.5 -66t-118.5 -39t-144.5 -18.5v29z" />
<glyph unicode="~" horiz-adv-x="1167" d="M133 545q39 74 104.5 129t157.5 55q60 0 148 -28.5t165 -57.5t111 -29q43 0 96 31t68 64l49 -52q-40 -75 -105 -132.5t-153 -57.5q-56 0 -140 28.5t-162.5 57.5t-121.5 29q-48 0 -97 -28.5t-65 -61.5z" />
<glyph unicode="&#xa1;" horiz-adv-x="624" d="M123 883q0 78 55 132t133 54t133.5 -54t55.5 -132t-55.5 -132.5t-133.5 -54.5t-133 54.5t-55 132.5zM135 -373q0 159 26 320.5t60 331.5t45 305h90q11 -135 45.5 -305t61 -331.5t26.5 -320.5h-354z" />
<glyph unicode="&#xa2;" horiz-adv-x="1159" d="M72 674q0 128 43.5 230t119 167.5t169 104.5t202.5 51v200h144v-198q154 -8 290 -62v-237h-79q-87 151 -211 184v-862q71 10 129 57t108 156h88l-22 -252q-122 -63 -303 -72v-241h-144v243q-118 10 -214 47.5t-168.5 101.5t-112 161.5t-39.5 220.5zM410 690 q0 -356 196 -424v846q-196 -61 -196 -422z" />
<glyph unicode="&#xa3;" horiz-adv-x="1110" d="M72 0v53q106 81 167.5 170.5t61.5 202.5q0 96 -41 231h-170v144h127q-33 125 -33 211q0 81 27.5 151.5t75 121t111 86.5t135 53.5t147.5 17.5q149 0 246.5 -60.5t97.5 -160.5q0 -76 -48.5 -124t-121.5 -48t-122.5 45t-49.5 118q0 66 51 127q-119 0 -173 -58t-54 -181 q0 -51 9.5 -109.5t17.5 -89t28 -100.5h318v-144h-285q10 -58 10 -106q0 -29 -7.5 -57.5t-15.5 -49t-28.5 -46.5t-32 -39t-41 -38t-39.5 -33t-43 -34h369q74 0 111 10t52.5 30.5t26.5 63.5h60q2 -16 2 -65q0 -150 -63.5 -221.5t-202.5 -71.5h-680z" />
<glyph unicode="&#xa4;" horiz-adv-x="1167" d="M63 299l115 117q-102 120 -102 299q0 193 102 303l-115 110l105 107l113 -113q58 47 139.5 74t163.5 27q176 0 307 -101l110 113l103 -107l-111 -110q48 -54 73.5 -134t25.5 -169q0 -182 -99 -299l111 -117l-103 -104l-110 116q-119 -104 -307 -104q-187 0 -303 104 l-113 -116zM190 715q0 -169 115.5 -288.5t278.5 -119.5q166 0 279.5 121t113.5 287q0 165 -114 286t-279 121q-164 0 -279 -119.5t-115 -287.5z" />
<glyph unicode="&#xa5;" horiz-adv-x="1167" d="M-8 1350v63h602v-63q-68 -24 -81 -35q-19 -15 -19 -43q0 -49 75 -242l90 -233l91 233q63 168 63 225q0 22 -6.5 36.5t-26.5 25.5t-35.5 16.5t-54.5 16.5v63h465v-63q-35 -12 -53.5 -20.5t-43.5 -29t-46 -53.5t-48.5 -87t-62.5 -136l-145 -340h200v-106h-225v-129h225 v-107h-225v-49q0 -62 5 -96t24.5 -60t47 -40t83.5 -34v-63h-635v63q56 20 83 34t47 40t25 60t5 96v49h-228v107h228v129h-228v106h199l-156 342q-32 69 -54.5 115t-44 80t-33.5 51.5t-33.5 34t-32.5 22.5t-41 21z" />
<glyph unicode="&#xa6;" horiz-adv-x="458" d="M170 -236v756h119v-756h-119zM170 788v756h119v-756h-119z" />
<glyph unicode="&#xa7;" horiz-adv-x="1052" d="M74 651q0 74 49.5 145t132.5 117q-86 96 -86 220t99 216.5t253 92.5q140 0 238 -59t98 -156q0 -66 -43.5 -112t-109.5 -46q-64 0 -109 41t-45 100q0 41 21.5 83t56.5 65q-40 14 -94 14q-89 0 -143 -38t-54 -97q0 -94 139 -162l338 -168q76 -38 114 -98t38 -125 q0 -79 -52.5 -158.5t-136.5 -132.5q113 -104 113 -243q0 -59 -28.5 -117.5t-79.5 -106t-129 -77t-169 -29.5q-161 0 -270 71t-109 177q0 71 49 119.5t119 48.5q69 0 118.5 -47.5t49.5 -114.5q0 -53 -29 -95.5t-73 -68.5q59 -19 147 -19q89 0 152 45t63 117q0 81 -108 144 l-356 202q-79 44 -121.5 112t-42.5 140zM258 770q0 -82 94 -131q354 -190 379 -209q53 59 53 117q0 71 -96 121q-370 189 -391 206q-39 -48 -39 -104z" />
<glyph unicode="&#xa8;" horiz-adv-x="743" d="M45 1309q0 60 42.5 101.5t102.5 41.5q61 0 103.5 -41.5t42.5 -101.5t-42.5 -103t-103.5 -43q-60 0 -102.5 43t-42.5 103zM408 1309q0 60 41.5 101.5t101.5 41.5q62 0 104.5 -41.5t42.5 -101.5t-43 -103t-104 -43q-60 0 -101.5 43t-41.5 103z" />
<glyph unicode="&#xa9;" horiz-adv-x="1630" d="M88 705q0 197 97.5 365t265 266t364.5 98t364.5 -98t265 -266t97.5 -365q0 -148 -57.5 -283t-155 -233t-232 -156t-282.5 -58t-282.5 58t-232 156t-155 233t-57.5 283zM248 705q0 -169 70.5 -309t201 -223t295.5 -83t295.5 83t201 223t70.5 309t-70.5 308.5t-201 222.5 t-295.5 83t-295.5 -83t-201 -222.5t-70.5 -308.5zM397 692q0 115 41.5 209.5t108 152t145 89t158.5 31.5q125 0 248 -56v-186h-43q-49 77 -94.5 114t-102.5 37q-56 0 -97.5 -32.5t-64 -89t-33 -120t-10.5 -136.5q0 -169 63 -267t193 -98q51 0 108.5 17.5t102.5 52.5l41 -45 q-29 -26 -53 -44t-66.5 -43.5t-94.5 -39t-109 -13.5q-115 0 -214 54t-163 162.5t-64 250.5z" />
<glyph unicode="&#xaa;" horiz-adv-x="790" d="M49 469v123h694v-123h-694zM49 860q0 211 391 250v84q0 127 -145 131q-28 0 -64 -8q26 -15 42 -39.5t16 -50.5q0 -40 -33 -69.5t-78 -29.5t-81 29.5t-36 71.5q0 79 91 131.5t245 52.5q130 0 203.5 -59t73.5 -176v-238q0 -72 19.5 -97.5t76.5 -31.5v-49q-37 -20 -59 -31 t-61 -23t-72 -12q-48 0 -87 20.5t-47 59.5q-32 -25 -53.5 -39.5t-62 -29.5t-82.5 -15q-87 0 -142 47.5t-55 120.5zM287 913q0 -49 28 -70.5t70 -21.5q31 0 55 15v188l-6 4q-63 0 -105 -26.5t-42 -88.5z" />
<glyph unicode="&#xab;" horiz-adv-x="907" d="M41 543l428 422h78l-205 -422l205 -420h-78zM446 543l338 354h66l-152 -354l152 -353h-64z" />
<glyph unicode="&#xac;" horiz-adv-x="1167" d="M147 498v157h873v-524h-158v367h-715z" />
<glyph unicode="&#xad;" horiz-adv-x="0" />
<glyph unicode="&#xae;" horiz-adv-x="1630" d="M88 705q0 197 97.5 365t265 266t364.5 98t364.5 -98t265 -266t97.5 -365q0 -148 -57.5 -283t-155 -233t-232 -156t-282.5 -58t-282.5 58t-232 156t-155 233t-57.5 283zM248 705q0 -169 70.5 -309t201 -223t295.5 -83t295.5 83t201 223t70.5 309t-70.5 308.5t-201 222.5 t-295.5 83t-295.5 -83t-201 -222.5t-70.5 -308.5zM487 264v43q38 10 49 37t11 96v516q0 60 -11.5 92t-48.5 42v40h320q144 0 228.5 -64t84.5 -185q0 -81 -46 -139t-116 -91l222 -356v-31h-213l-201 361h-21v-185q0 -68 10.5 -94t45.5 -41v-41h-314zM745 715h43q66 0 101 43 t35 116q0 90 -29.5 128t-101.5 38h-48v-325z" />
<glyph unicode="&#xaf;" horiz-adv-x="581" d="M25 1233v119h532v-119h-532z" />
<glyph unicode="&#xb0;" horiz-adv-x="835" d="M84 1106q0 136 98.5 233t235.5 97t235.5 -97t98.5 -233t-98.5 -233t-235.5 -97t-235.5 97t-98.5 233zM215 1106q0 -93 56 -157t145 -64q88 0 144 64t56 157q0 91 -56.5 155t-143.5 64q-89 0 -145 -63.5t-56 -155.5z" />
<glyph unicode="&#xb1;" horiz-adv-x="1167" d="M147 0v158h873v-158h-873zM147 528v158h357v369h158v-369h358v-158h-358v-305h-158v305h-357z" />
<glyph unicode="&#xb2;" horiz-adv-x="806" d="M55 1184q0 91 97.5 167t255.5 76q140 0 234.5 -63t94.5 -174q0 -55 -25 -103.5t-67 -88t-86 -72.5t-94 -71t-78 -69l-45 -49h391l-18 -205h-656v33l269 305q141 162 141 299q0 89 -49 126.5t-121 37.5q-67 0 -115 -30q66 -3 108 -42.5t42 -89.5q0 -49 -37.5 -84.5 t-97.5 -35.5q-62 0 -103 38t-41 95z" />
<glyph unicode="&#xb3;" horiz-adv-x="806" d="M35 694q0 56 36 94.5t97 38.5q59 0 98 -37.5t39 -84.5q0 -60 -45 -105q6 -2 19 -2q71 0 127.5 47t56.5 137t-58.5 135.5t-140.5 45.5h-20l-29 41l180 215h-299v194h604v-8l-231 -272q116 -27 188 -105.5t72 -185.5q0 -97 -57.5 -171.5t-152 -113.5t-206.5 -39 q-132 0 -205 49t-73 127z" />
<glyph unicode="&#xb4;" horiz-adv-x="514" d="M33 1212l364 269l95 -174l-429 -154z" />
<glyph unicode="&#xb5;" horiz-adv-x="1261" d="M45 926v61q106 7 225.5 30.5t200.5 51.5h21v-704q0 -96 45.5 -141.5t113.5 -45.5q74 0 131 29v502v44.5t-3 36.5t-3.5 29t-8 23.5t-9.5 18t-15 15t-17.5 13t-24 12t-27.5 11.5t-35 14v61q109 8 238.5 31.5t207.5 50.5h21v-721q0 -62 3.5 -94t21.5 -56t39 -35t71 -32 q7 -3 10 -4v-61q-255 -23 -446 -91h-19v156q-74 -68 -150.5 -112t-166.5 -44q-93 0 -160 37q6 -59 59.5 -199t53.5 -175q0 -50 -37.5 -86.5t-85.5 -36.5q-6 0 -15.5 1t-31.5 8t-39.5 19.5t-31 39.5t-13.5 63v1063q0 37 -1.5 61.5t-3 44.5t-10 33.5t-13.5 22.5t-23.5 19.5 t-29.5 16t-42 19.5z" />
<glyph unicode="&#xb6;" horiz-adv-x="1075" d="M37 1106q0 129 71.5 218t210.5 89h654v-29q-48 -23 -65 -52t-17 -70v-1723h-127v1766h-297v-1766h-127v1256q-143 6 -223 95t-80 216z" />
<glyph unicode="&#xb7;" horiz-adv-x="518" d="M70 729q0 76 55 130t133 54t133 -54t55 -130q0 -78 -55 -132t-133 -54t-133 54t-55 132z" />
<glyph unicode="&#xb8;" horiz-adv-x="489" d="M61 -428l17 59q63 -18 112 -18t78 25t29 59q0 46 -57.5 76t-118.5 32l145 195h94l-67 -104q66 -7 121 -55t55 -122q0 -82 -70 -128t-168 -46q-101 0 -170 27z" />
<glyph unicode="&#xb9;" horiz-adv-x="806" d="M98 1202q94 24 228 98t217 146h10v-711q0 -70 20 -103.5t78 -56.5v-43h-483v43q66 19 86 53t20 107v430q-29 -7 -94.5 -20.5t-77.5 -16.5z" />
<glyph unicode="&#xba;" horiz-adv-x="890" d="M39 1057q0 82 34 150.5t91 112.5t129.5 68.5t150.5 24.5q105 0 197 -41.5t151.5 -124.5t59.5 -190q0 -160 -122 -262.5t-288 -102.5q-106 0 -197.5 44t-148.5 128.5t-57 192.5zM49 471v121h776v-121h-776zM301 1055q0 -275 143 -275q144 0 144 273q0 272 -146 272 q-141 0 -141 -270z" />
<glyph unicode="&#xbb;" horiz-adv-x="907" d="M57 190l152 353l-152 354h66l338 -354l-340 -353h-64zM360 123l205 420l-205 422h78l428 -422l-428 -420h-78z" />
<glyph unicode="&#xbc;" horiz-adv-x="1986" d="M98 1202q94 24 228 98t217 146h10v-711q0 -70 20 -103.5t78 -56.5v-43h-483v43q66 19 86 53t20 107v430q-29 -7 -94.5 -20.5t-77.5 -16.5zM451 -96l927 1595h158l-926 -1595h-159zM1161 219v139l438 525h207v-527h97v-137h-97v-33q0 -66 16 -86.5t79 -44.5v-55h-449v55 q68 20 85 41.5t17 89.5v33h-393zM1313 356h241v291z" />
<glyph unicode="&#xbd;" horiz-adv-x="1986" d="M98 1202q94 24 228 98t217 146h10v-711q0 -70 20 -103.5t78 -56.5v-43h-483v43q66 19 86 53t20 107v430q-29 -7 -94.5 -20.5t-77.5 -16.5zM451 -96l927 1595h158l-926 -1595h-159zM1190 651q0 92 97 168t255 76q140 0 235 -63.5t95 -174.5q0 -55 -25 -103.5t-67 -88 t-86 -72t-94 -70.5t-78 -69l-45 -49h391l-19 -205h-655v33l268 305q142 163 142 299q0 89 -49 126.5t-121 37.5q-65 0 -115 -31q66 -3 107.5 -42t41.5 -89q0 -49 -37.5 -85t-97.5 -36q-61 0 -102 38t-41 95z" />
<glyph unicode="&#xbe;" horiz-adv-x="1986" d="M35 694q0 56 36 94.5t97 38.5q59 0 98 -37.5t39 -84.5q0 -60 -45 -105q6 -2 19 -2q71 0 127.5 47t56.5 137t-58.5 135.5t-140.5 45.5h-20l-29 41l180 215h-299v194h604v-8l-231 -272q116 -27 188 -105.5t72 -185.5q0 -97 -57.5 -171.5t-152 -113.5t-206.5 -39 q-132 0 -205 49t-73 127zM451 -96l927 1595h158l-926 -1595h-159zM1161 219v139l438 525h207v-527h97v-137h-97v-33q0 -66 16 -86.5t79 -44.5v-55h-449v55q68 20 85 41.5t17 89.5v33h-393zM1313 356h241v291z" />
<glyph unicode="&#xbf;" horiz-adv-x="987" d="M135 -70q0 53 15.5 102.5t34.5 84.5t58 79t64.5 68t75.5 68q76 68 106 119t33 133h90q0 -89 -16.5 -164.5t-39.5 -127.5t-46.5 -101t-40 -109t-16.5 -127q0 -123 64.5 -182.5t160.5 -59.5q78 0 129 25q-76 20 -121 65.5t-45 114.5q0 77 49 122.5t125 45.5 q77 0 126.5 -45.5t49.5 -134.5q0 -135 -128 -221t-312 -86q-188 0 -302 86t-114 245zM381 883q0 80 54 132t132 52t132.5 -52t54.5 -132q0 -77 -55 -130t-132 -53t-131.5 53t-54.5 130z" />
<glyph unicode="&#xc0;" horiz-adv-x="1544" d="M8 0v63q51 14 81.5 33.5t67 72.5t72.5 146t86 252l269 846h387l315 -985q47 -147 85 -224.5t71 -106t84 -42.5v-55h-641v63q57 13 83.5 35.5t26.5 69.5q0 65 -61 264l-27 86h-420q-73 -247 -73 -332q0 -58 30 -80.5t107 -42.5v-63h-543zM532 672h330l-157 553h-11z M547 1675l94 174l365 -268l-31 -59z" />
<glyph unicode="&#xc1;" horiz-adv-x="1544" d="M8 0v63q51 14 81.5 33.5t67 72.5t72.5 146t86 252l269 846h387l315 -985q47 -147 85 -224.5t71 -106t84 -42.5v-55h-641v63q57 13 83.5 35.5t26.5 69.5q0 65 -61 264l-27 86h-420q-73 -247 -73 -332q0 -58 30 -80.5t107 -42.5v-63h-543zM532 672h330l-157 553h-11z M547 1581l364 268l95 -174l-428 -153z" />
<glyph unicode="&#xc2;" horiz-adv-x="1544" d="M8 0v63q51 14 81.5 33.5t67 72.5t72.5 146t86 252l269 846h387l315 -985q47 -147 85 -224.5t71 -106t84 -42.5v-55h-641v63q57 13 83.5 35.5t26.5 69.5q0 65 -61 264l-27 86h-420q-73 -247 -73 -332q0 -58 30 -80.5t107 -42.5v-63h-543zM510 1532l186 278h158l190 -278 h-36l-232 108l-229 -108h-37zM532 672h330l-157 553h-11z" />
<glyph unicode="&#xc3;" horiz-adv-x="1544" d="M8 0v63q51 14 81.5 33.5t67 72.5t72.5 146t86 252l269 846h387l315 -985q47 -147 85 -224.5t71 -106t84 -42.5v-55h-641v63q57 13 83.5 35.5t26.5 69.5q0 65 -61 264l-27 86h-420q-73 -247 -73 -332q0 -58 30 -80.5t107 -42.5v-63h-543zM471 1538q5 17 12.5 39.5t25 59 t37 65.5t49.5 50.5t62 21.5q57 0 146.5 -30t132.5 -30q13 0 23.5 1.5t20 6t15 7t13 11.5t10.5 12.5t12 16.5t12 17l41 -4q-5 -17 -12.5 -39.5t-25 -59.5t-37 -66t-49.5 -51t-62 -22q-60 0 -152.5 31t-126.5 31q-13 0 -23.5 -1.5t-20 -6t-15 -7t-13 -11.5t-10.5 -12.5 t-12 -16.5t-12 -17zM532 672h330l-157 553h-11z" />
<glyph unicode="&#xc4;" horiz-adv-x="1544" d="M8 0v63q51 14 81.5 33.5t67 72.5t72.5 146t86 252l269 846h387l315 -985q47 -147 85 -224.5t71 -106t84 -42.5v-55h-641v63q57 13 83.5 35.5t26.5 69.5q0 65 -61 264l-27 86h-420q-73 -247 -73 -332q0 -58 30 -80.5t107 -42.5v-63h-543zM451 1677q0 60 42.5 102t102.5 42 q61 0 103 -42t42 -102t-42 -102.5t-103 -42.5q-60 0 -102.5 42.5t-42.5 102.5zM532 672h330l-157 553h-11zM813 1677q0 60 41.5 102t101.5 42q62 0 105 -42t43 -102t-43.5 -102.5t-104.5 -42.5q-60 0 -101.5 42.5t-41.5 102.5z" />
<glyph unicode="&#xc5;" horiz-adv-x="1525" d="M4 0v63q51 14 81.5 33.5t67 72.5t72.5 146t86 252l240 756q-76 79 -76 190q0 118 85 200.5t204 82.5t203 -82.5t84 -200.5q0 -99 -62 -174l293 -911q47 -147 85 -224.5t71 -106t84 -42.5v-55h-641v63q57 13 83.5 35.5t26.5 69.5q0 62 -61 264l-27 86h-420 q-73 -247 -73 -332q0 -58 30 -80.5t107 -42.5v-63h-543zM528 672h330l-160 553h-8zM639 1513q0 -53 36.5 -91t88.5 -38t88.5 38t36.5 91t-36.5 91t-88.5 38t-88.5 -38t-36.5 -91z" />
<glyph unicode="&#xc6;" horiz-adv-x="2007" d="M-25 0v63q95 34 190.5 142.5t242.5 363.5l299 523q43 72 43 129q0 52 -42.5 79.5t-127.5 49.5v63h1278v-313h-58q-41 52 -61 77.5t-47 50t-38.5 32.5t-41 15t-48 7h-65.5h-151v-496h163q72 0 111 28t92 116h58v-406h-56q-53 85 -92.5 111.5t-112.5 26.5h-163v-531h153h67 t54.5 5.5t43 7.5t39.5 18.5t37 24.5t42 40t48 50t62 69h60l-43 -346h-1053v63q88 33 110 50q33 26 38 92q2 23 2 57v236h-451q-85 -155 -119.5 -231.5t-34.5 -119.5q0 -34 33 -52.5t107 -31.5v-63h-568zM635 641h373v666z" />
<glyph unicode="&#xc7;" horiz-adv-x="1497" d="M80 690q0 154 48.5 281t129.5 213t191 145.5t230 86t249 26.5q111 0 249 -27t209 -59v-309h-100q-77 144 -166.5 205t-218.5 61q-100 0 -180 -32t-143 -100t-97.5 -187t-34.5 -281q0 -613 488 -613q69 0 117.5 10.5t98 41.5t93 90t88.5 153h103l-29 -336 q-67 -35 -199 -61t-256 -29l-47 -73q66 -7 121 -55t55 -122q0 -82 -70 -128t-167 -46q-101 0 -170 27l16 59q63 -18 113 -18q49 0 77.5 25t28.5 59q0 46 -57.5 76t-118.5 32l123 166q-134 7 -249.5 38t-213 89.5t-166 141t-107 197.5t-38.5 253z" />
<glyph unicode="&#xc8;" horiz-adv-x="1232" d="M53 0v63q88 33 110 50q33 26 38 92q2 23 2 57v893q0 56 -4.5 85.5t-23 50t-41.5 30.5t-74 27q-5 1 -7 2v63h1006v-313h-78q-41 52 -61 77.5t-47 50t-38.5 32.5t-41 15t-48 7h-65.5h-131v-496h153q72 0 111 28t92 116h68v-406h-66q-53 85 -92.5 111.5t-112.5 26.5h-153 v-531h133h67t54.5 5.5t43 7.5t39.5 18.5t37 24.5t42 40t48 50t62 69h80l-43 -346h-1059zM385 1675l94 174l365 -268l-31 -59z" />
<glyph unicode="&#xc9;" horiz-adv-x="1232" d="M53 0v63q88 33 110 50q33 26 38 92q2 23 2 57v893q0 56 -4.5 85.5t-23 50t-41.5 30.5t-74 27q-5 1 -7 2v63h1006v-313h-78q-41 52 -61 77.5t-47 50t-38.5 32.5t-41 15t-48 7h-65.5h-131v-496h153q72 0 111 28t92 116h68v-406h-66q-53 85 -92.5 111.5t-112.5 26.5h-153 v-531h133h67t54.5 5.5t43 7.5t39.5 18.5t37 24.5t42 40t48 50t62 69h80l-43 -346h-1059zM385 1581l365 268l94 -174l-428 -153z" />
<glyph unicode="&#xca;" horiz-adv-x="1232" d="M53 0v63q88 33 110 50q33 26 38 92q2 23 2 57v893q0 56 -4.5 85.5t-23 50t-41.5 30.5t-74 27q-5 1 -7 2v63h1006v-313h-78q-41 52 -61 77.5t-47 50t-38.5 32.5t-41 15t-48 7h-65.5h-131v-496h153q72 0 111 28t92 116h68v-406h-66q-53 85 -92.5 111.5t-112.5 26.5h-153 v-531h133h67t54.5 5.5t43 7.5t39.5 18.5t37 24.5t42 40t48 50t62 69h80l-43 -346h-1059zM348 1532l187 278h157l191 -278h-37l-232 108l-229 -108h-37z" />
<glyph unicode="&#xcb;" horiz-adv-x="1232" d="M53 0v63q88 33 110 50q33 26 38 92q2 23 2 57v893q0 56 -4.5 85.5t-23 50t-41.5 30.5t-74 27q-5 1 -7 2v63h1006v-313h-78q-41 52 -61 77.5t-47 50t-38.5 32.5t-41 15t-48 7h-65.5h-131v-496h153q72 0 111 28t92 116h68v-406h-66q-53 85 -92.5 111.5t-112.5 26.5h-153 v-531h133h67t54.5 5.5t43 7.5t39.5 18.5t37 24.5t42 40t48 50t62 69h80l-43 -346h-1059zM289 1677q0 60 42.5 102t102.5 42q61 0 103.5 -42t42.5 -102t-42.5 -102.5t-103.5 -42.5q-60 0 -102.5 42.5t-42.5 102.5zM651 1677q0 60 42 102t102 42q61 0 104 -42t43 -102 t-43 -102.5t-104 -42.5q-60 0 -102 42.5t-42 102.5z" />
<glyph unicode="&#xcc;" horiz-adv-x="765" d="M51 0v63q53 19 79 32.5t44.5 38t23.5 56t5 89.5v856q0 76 -12.5 112.5t-41 57t-98.5 45.5v63h649v-63q-70 -25 -98.5 -45.5t-40.5 -57t-12 -112.5v-856q0 -76 12 -112.5t41 -57.5t98 -46v-63h-649zM154 1675l94 174l364 -268l-30 -59z" />
<glyph unicode="&#xcd;" horiz-adv-x="765" d="M51 0v63q53 19 79 32.5t44.5 38t23.5 56t5 89.5v856q0 76 -12.5 112.5t-41 57t-98.5 45.5v63h649v-63q-70 -25 -98.5 -45.5t-40.5 -57t-12 -112.5v-856q0 -76 12 -112.5t41 -57.5t98 -46v-63h-649zM154 1581l364 268l94 -174l-428 -153z" />
<glyph unicode="&#xce;" horiz-adv-x="765" d="M51 0v63q53 19 79 32.5t44.5 38t23.5 56t5 89.5v856q0 76 -12.5 112.5t-41 57t-98.5 45.5v63h649v-63q-70 -25 -98.5 -45.5t-40.5 -57t-12 -112.5v-856q0 -76 12 -112.5t41 -57.5t98 -46v-63h-649zM115 1532l186 278h158l190 -278h-37l-231 108l-229 -108h-37z" />
<glyph unicode="&#xcf;" horiz-adv-x="765" d="M51 0v63q53 19 79 32.5t44.5 38t23.5 56t5 89.5v856q0 76 -12.5 112.5t-41 57t-98.5 45.5v63h649v-63q-70 -25 -98.5 -45.5t-40.5 -57t-12 -112.5v-856q0 -76 12 -112.5t41 -57.5t98 -46v-63h-649zM57 1677q0 60 43 102t103 42q61 0 103 -42t42 -102t-42 -102.5 t-103 -42.5q-60 0 -103 42.5t-43 102.5zM420 1677q0 60 41.5 102t101.5 42q62 0 105 -42t43 -102t-43.5 -102.5t-104.5 -42.5q-60 0 -101.5 42.5t-41.5 102.5z" />
<glyph unicode="&#xd0;" horiz-adv-x="1667" d="M53 0v63q68 25 97 47t41 59.5t12 113.5v376h-142v134h142v342q0 38 -2 63.5t-9 47t-16 34.5t-28 26t-39.5 22t-55.5 22v63h701q172 0 319 -41.5t260 -122t177.5 -211t64.5 -297.5q0 -224 -111.5 -394t-301.5 -258.5t-429 -88.5h-680zM549 131h180q119 0 212 44.5t151 124 t88 185.5t30 232q0 265 -124.5 415t-335.5 150h-201v-489h227v-134h-227v-528z" />
<glyph unicode="&#xd1;" horiz-adv-x="1738" d="M33 1350v63h534l772 -938v467q0 155 -16 234.5t-47 112.5t-100 61v63h512v-63q-52 -21 -78.5 -41t-48 -64t-28.5 -114t-7 -189v-952h-230l-895 1116v-631q0 -118 7.5 -189.5t29 -116t49 -65.5t78.5 -41v-63h-512v63q52 20 79.5 40.5t49 65.5t28.5 116t7 190v674 q0 68 -41.5 118t-142.5 83zM580 1538q5 17 12.5 39.5t25 59t37 65.5t49.5 50.5t62 21.5q57 0 146 -30t132 -30q12 0 22 1.5t17 3.5t14.5 7t11.5 7.5t11 11t9.5 12t10.5 14.5t11 15l41 -4q-5 -17 -12.5 -39.5t-25 -59.5t-37 -66t-49.5 -51t-62 -22q-60 0 -152.5 31t-126.5 31 q-13 0 -23.5 -1.5t-20 -6t-15 -7t-13 -11.5t-10.5 -12.5t-12 -16.5t-12 -17z" />
<glyph unicode="&#xd2;" horiz-adv-x="1787" d="M82 705q0 140 44 260.5t119.5 206.5t176 148t214.5 92t234 30t234 -28.5t215 -88t177 -143.5t120.5 -204t44.5 -261q0 -142 -44 -264.5t-119.5 -210t-176.5 -150t-215.5 -93t-235.5 -30.5q-124 0 -238.5 28.5t-215 88.5t-174.5 145.5t-117 207t-43 266.5zM446 705 q0 -280 112 -442.5t312 -162.5t313 162.5t113 442.5q0 279 -112.5 443.5t-313.5 164.5q-202 0 -313 -161.5t-111 -446.5zM664 1675l94 174l364 -268l-30 -59z" />
<glyph unicode="&#xd3;" horiz-adv-x="1787" d="M82 705q0 140 44 260.5t119.5 206.5t176 148t214.5 92t234 30t234 -28.5t215 -88t177 -143.5t120.5 -204t44.5 -261q0 -142 -44 -264.5t-119.5 -210t-176.5 -150t-215.5 -93t-235.5 -30.5q-124 0 -238.5 28.5t-215 88.5t-174.5 145.5t-117 207t-43 266.5zM446 705 q0 -280 112 -442.5t312 -162.5t313 162.5t113 442.5q0 279 -112.5 443.5t-313.5 164.5q-202 0 -313 -161.5t-111 -446.5zM664 1581l364 268l94 -174l-428 -153z" />
<glyph unicode="&#xd4;" horiz-adv-x="1787" d="M82 705q0 140 44 260.5t119.5 206.5t176 148t214.5 92t234 30t234 -28.5t215 -88t177 -143.5t120.5 -204t44.5 -261q0 -142 -44 -264.5t-119.5 -210t-176.5 -150t-215.5 -93t-235.5 -30.5q-124 0 -238.5 28.5t-215 88.5t-174.5 145.5t-117 207t-43 266.5zM446 705 q0 -280 112 -442.5t312 -162.5t313 162.5t113 442.5q0 279 -112.5 443.5t-313.5 164.5q-202 0 -313 -161.5t-111 -446.5zM627 1532l186 278h158l190 -278h-37l-231 108l-229 -108h-37z" />
<glyph unicode="&#xd5;" horiz-adv-x="1787" d="M82 705q0 140 44 260.5t119.5 206.5t176 148t214.5 92t234 30t234 -28.5t215 -88t177 -143.5t120.5 -204t44.5 -261q0 -142 -44 -264.5t-119.5 -210t-176.5 -150t-215.5 -93t-235.5 -30.5q-124 0 -238.5 28.5t-215 88.5t-174.5 145.5t-117 207t-43 266.5zM446 705 q0 -280 112 -442.5t312 -162.5t313 162.5t113 442.5q0 279 -112.5 443.5t-313.5 164.5q-202 0 -313 -161.5t-111 -446.5zM588 1538q5 17 12.5 39.5t25 59t37 65.5t49.5 50.5t62 21.5q57 0 146.5 -30t132.5 -30q13 0 23.5 1.5t20 6t15 7t13 11.5t10.5 12.5t12 16.5t12 17 l41 -4q-5 -17 -12.5 -39.5t-25 -59.5t-37 -66t-49.5 -51t-62 -22q-60 0 -152.5 31t-126.5 31q-13 0 -23.5 -1.5t-20 -6t-15 -7t-13 -11.5t-10.5 -12.5t-12 -16.5t-12 -17z" />
<glyph unicode="&#xd6;" horiz-adv-x="1787" d="M82 705q0 140 44 260.5t119.5 206.5t176 148t214.5 92t234 30t234 -28.5t215 -88t177 -143.5t120.5 -204t44.5 -261q0 -142 -44 -264.5t-119.5 -210t-176.5 -150t-215.5 -93t-235.5 -30.5q-124 0 -238.5 28.5t-215 88.5t-174.5 145.5t-117 207t-43 266.5zM446 705 q0 -280 112 -442.5t312 -162.5t313 162.5t113 442.5q0 279 -112.5 443.5t-313.5 164.5q-202 0 -313 -161.5t-111 -446.5zM567 1677q0 60 43 102t103 42q61 0 103 -42t42 -102t-42 -102.5t-103 -42.5q-60 0 -103 42.5t-43 102.5zM930 1677q0 60 41.5 102t101.5 42 q62 0 105 -42t43 -102t-43.5 -102.5t-104.5 -42.5q-60 0 -101.5 42.5t-41.5 102.5z" />
<glyph unicode="&#xd7;" horiz-adv-x="1167" d="M182 289l289 289l-289 288l113 111l289 -289l288 289l111 -111l-289 -288l289 -289l-111 -113l-288 289l-289 -289z" />
<glyph unicode="&#xd8;" horiz-adv-x="1753" d="M82 705q0 140 44 260.5t119.5 206.5t176 148t214.5 92t234 30q177 0 342 -70l86 139l111 -63l-82 -131q154 -94 244 -248t90 -360q0 -142 -44 -263.5t-119.5 -208t-176.5 -148t-215.5 -91t-235.5 -29.5q-182 0 -342 62l-86 -142l-108 66l80 131q-155 92 -243.5 248.5 t-88.5 370.5zM446 705q0 -257 97 -414l575 930q-103 92 -248 92q-202 0 -313 -161.5t-111 -446.5zM625 186q103 -86 245 -86q200 0 313 162.5t113 442.5q0 251 -94 411z" />
<glyph unicode="&#xd9;" horiz-adv-x="1611" d="M55 1350v63h645v-63q-95 -35 -122 -79t-27 -157v-719q0 -117 81 -187.5t240 -70.5q168 0 256.5 73t88.5 218v514q0 96 -7 161.5t-18 106t-35.5 68t-47 41t-65.5 31.5v63h531v-63q-44 -18 -67 -31.5t-47.5 -40.5t-35 -67.5t-17.5 -106t-7 -162.5v-545q0 -135 -76 -233 t-206 -146.5t-300 -48.5q-179 0 -315.5 46.5t-217.5 144.5t-81 237v717q0 112 -28 156.5t-122 79.5zM584 1675l94 174l364 -268l-30 -59z" />
<glyph unicode="&#xda;" horiz-adv-x="1611" d="M55 1350v63h645v-63q-95 -35 -122 -79t-27 -157v-719q0 -117 81 -187.5t240 -70.5q168 0 256.5 73t88.5 218v514q0 96 -7 161.5t-18 106t-35.5 68t-47 41t-65.5 31.5v63h531v-63q-44 -18 -67 -31.5t-47.5 -40.5t-35 -67.5t-17.5 -106t-7 -162.5v-545q0 -135 -76 -233 t-206 -146.5t-300 -48.5q-179 0 -315.5 46.5t-217.5 144.5t-81 237v717q0 112 -28 156.5t-122 79.5zM584 1581l364 268l94 -174l-428 -153z" />
<glyph unicode="&#xdb;" horiz-adv-x="1611" d="M55 1350v63h645v-63q-95 -35 -122 -79t-27 -157v-719q0 -117 81 -187.5t240 -70.5q168 0 256.5 73t88.5 218v514q0 96 -7 161.5t-18 106t-35.5 68t-47 41t-65.5 31.5v63h531v-63q-44 -18 -67 -31.5t-47.5 -40.5t-35 -67.5t-17.5 -106t-7 -162.5v-545q0 -135 -76 -233 t-206 -146.5t-300 -48.5q-179 0 -315.5 46.5t-217.5 144.5t-81 237v717q0 112 -28 156.5t-122 79.5zM547 1532l186 278h158l190 -278h-37l-231 108l-229 -108h-37z" />
<glyph unicode="&#xdc;" horiz-adv-x="1611" d="M55 1350v63h645v-63q-95 -35 -122 -79t-27 -157v-719q0 -117 81 -187.5t240 -70.5q168 0 256.5 73t88.5 218v514q0 96 -7 161.5t-18 106t-35.5 68t-47 41t-65.5 31.5v63h531v-63q-44 -18 -67 -31.5t-47.5 -40.5t-35 -67.5t-17.5 -106t-7 -162.5v-545q0 -135 -76 -233 t-206 -146.5t-300 -48.5q-179 0 -315.5 46.5t-217.5 144.5t-81 237v717q0 112 -28 156.5t-122 79.5zM487 1677q0 60 43 102t103 42q61 0 103 -42t42 -102t-42 -102.5t-103 -42.5q-60 0 -103 42.5t-43 102.5zM850 1677q0 60 41.5 102t101.5 42q62 0 105 -42t43 -102 t-43.5 -102.5t-104.5 -42.5q-60 0 -101.5 42.5t-41.5 102.5z" />
<glyph unicode="&#xdd;" horiz-adv-x="1390" d="M8 1352v61h649v-63q-57 -15 -80.5 -31.5t-23.5 -50.5q0 -23 12 -61.5t25.5 -70.5t48.5 -114l115 -268l114 272q31 73 42 101.5t21.5 65t10.5 60.5q0 42 -29 61t-98 36v63h533v-63q-91 -28 -163 -99.5t-145 -240.5l-190 -432v-295q0 -77 11.5 -114t40.5 -59t97 -47v-63 h-643v63q67 25 95.5 47t40.5 59.5t12 113.5v292l-205 437q-35 75 -68 130t-57 87t-56 57.5t-52 36.5t-58 29zM465 1581l364 268l95 -174l-428 -153z" />
<glyph unicode="&#xde;" horiz-adv-x="1300" d="M51 1350v63h664v-63q-106 -36 -136 -73.5t-30 -143.5l78 -7h78q289 0 415.5 -94.5t126.5 -290.5q0 -213 -142.5 -319.5t-416.5 -106.5h-139v-32q0 -106 34 -145t148 -75v-63h-678v63q68 25 97 47t41 59.5t12 113.5v850q0 57 -5 89.5t-24 56.5t-45 38t-78 33zM549 446h88 q76 0 131.5 26t84 70.5t41.5 94t13 106.5q0 54 -12.5 97t-41 79t-80 56t-122.5 20h-102v-549z" />
<glyph unicode="&#xdf;" horiz-adv-x="1335" d="M39 926v61l154 25q0 103 33.5 197t97 169.5t166 120.5t229.5 45q198 0 315 -90.5t117 -226.5q0 -46 -19.5 -90.5t-44.5 -75.5t-66.5 -65.5t-65.5 -50.5t-62 -40v-8q48 -19 96 -45t104 -70.5t98 -96t70.5 -125t28.5 -154.5t-30.5 -151.5t-83.5 -121t-123.5 -87t-151.5 -54 t-166 -17.5v66q59 13 103.5 46t70 78t37.5 94t12 101q0 123 -91.5 237t-227.5 161l-6 16q248 202 248 447q0 104 -46.5 155t-123.5 51q-70 0 -112.5 -33.5t-66.5 -122t-24 -239.5v-772q0 -33 2 -54.5t3.5 -39t10 -30.5t13.5 -21t23.5 -18t28.5 -15.5t40 -18.5v-63h-568v63 q34 16 45 21t30.5 18.5t24 22.5t12 29.5t8.5 44t1 61.5v449v44.5t-3 36.5t-3.5 29t-8 23.5t-9.5 18t-15 15t-17.5 13t-24 12t-27.5 11.5t-35 14z" />
<glyph unicode="&#xe0;" horiz-adv-x="1073" d="M33 231q0 346 581 398v98q0 110 -60.5 163.5t-170.5 53.5q-53 0 -109 -18q47 -21 71 -47t24 -76q0 -66 -43 -105t-107 -39q-62 0 -106.5 39t-44.5 103q0 79 71 142t174.5 94.5t212.5 31.5q213 0 312.5 -89.5t99.5 -283.5v-401q0 -71 14.5 -106.5t41 -48t81.5 -19.5v-35 q-148 -106 -270 -106q-146 0 -187 126q-151 -131 -313 -131q-109 0 -190.5 72.5t-81.5 183.5zM326 1307l94 174l364 -269l-30 -59zM358 315q0 -72 48.5 -112.5t109.5 -40.5q53 0 98 20v316q-28 4 -43 4q-39 0 -73.5 -8.5t-67.5 -27.5t-52.5 -58t-19.5 -93z" />
<glyph unicode="&#xe1;" horiz-adv-x="1073" d="M33 231q0 346 581 398v98q0 110 -60.5 163.5t-170.5 53.5q-53 0 -109 -18q47 -21 71 -47t24 -76q0 -66 -43 -105t-107 -39q-62 0 -106.5 39t-44.5 103q0 79 71 142t174.5 94.5t212.5 31.5q213 0 312.5 -89.5t99.5 -283.5v-401q0 -71 14.5 -106.5t41 -48t81.5 -19.5v-35 q-148 -106 -270 -106q-146 0 -187 126q-151 -131 -313 -131q-109 0 -190.5 72.5t-81.5 183.5zM326 1212l364 269l94 -174l-428 -154zM358 315q0 -72 48.5 -112.5t109.5 -40.5q53 0 98 20v316q-28 4 -43 4q-39 0 -73.5 -8.5t-67.5 -27.5t-52.5 -58t-19.5 -93z" />
<glyph unicode="&#xe2;" horiz-adv-x="1073" d="M33 231q0 346 581 398v98q0 110 -60.5 163.5t-170.5 53.5q-53 0 -109 -18q47 -21 71 -47t24 -76q0 -66 -43 -105t-107 -39q-62 0 -106.5 39t-44.5 103q0 79 71 142t174.5 94.5t212.5 31.5q213 0 312.5 -89.5t99.5 -283.5v-401q0 -71 14.5 -106.5t41 -48t81.5 -19.5v-35 q-148 -106 -270 -106q-146 0 -187 126q-151 -131 -313 -131q-109 0 -190.5 72.5t-81.5 183.5zM285 1163l186 279h158l190 -279h-37l-231 109l-229 -109h-37zM358 315q0 -72 48.5 -112.5t109.5 -40.5q53 0 98 20v316q-28 4 -43 4q-39 0 -73.5 -8.5t-67.5 -27.5t-52.5 -58 t-19.5 -93z" />
<glyph unicode="&#xe3;" horiz-adv-x="1073" d="M33 231q0 346 581 398v98q0 110 -60.5 163.5t-170.5 53.5q-53 0 -109 -18q47 -21 71 -47t24 -76q0 -66 -43 -105t-107 -39q-62 0 -106.5 39t-44.5 103q0 79 71 142t174.5 94.5t212.5 31.5q213 0 312.5 -89.5t99.5 -283.5v-401q0 -71 14.5 -106.5t41 -48t81.5 -19.5v-35 q-148 -106 -270 -106q-146 0 -187 126q-151 -131 -313 -131q-109 0 -190.5 72.5t-81.5 183.5zM246 1169q5 17 12.5 39.5t25 59t37 65.5t49.5 50.5t62 21.5q57 0 146.5 -29.5t132.5 -29.5q12 0 21.5 1.5t17 3t15 6.5t11.5 8t10.5 11t9.5 11.5t10.5 14.5t10.5 15l41 -4 q-5 -17 -12.5 -39.5t-25 -59.5t-37 -66t-49.5 -50.5t-62 -21.5q-60 0 -152.5 30.5t-126.5 30.5q-13 0 -23.5 -1.5t-20 -6t-15 -7t-13 -11.5t-10.5 -12.5t-12 -16.5t-12 -17zM358 315q0 -72 48.5 -112.5t109.5 -40.5q53 0 98 20v316q-28 4 -43 4q-39 0 -73.5 -8.5 t-67.5 -27.5t-52.5 -58t-19.5 -93z" />
<glyph unicode="&#xe4;" horiz-adv-x="1073" d="M33 231q0 346 581 398v98q0 110 -60.5 163.5t-170.5 53.5q-53 0 -109 -18q47 -21 71 -47t24 -76q0 -66 -43 -105t-107 -39q-62 0 -106.5 39t-44.5 103q0 79 71 142t174.5 94.5t212.5 31.5q213 0 312.5 -89.5t99.5 -283.5v-401q0 -71 14.5 -106.5t41 -48t81.5 -19.5v-35 q-148 -106 -270 -106q-146 0 -187 126q-151 -131 -313 -131q-109 0 -190.5 72.5t-81.5 183.5zM225 1309q0 60 43 101.5t103 41.5q61 0 103 -41.5t42 -101.5t-42 -103t-103 -43q-60 0 -103 43t-43 103zM358 315q0 -72 48.5 -112.5t109.5 -40.5q53 0 98 20v316q-28 4 -43 4 q-39 0 -73.5 -8.5t-67.5 -27.5t-52.5 -58t-19.5 -93zM588 1309q0 60 41.5 101.5t101.5 41.5q62 0 105 -41.5t43 -101.5t-43.5 -103t-104.5 -43q-60 0 -101.5 43t-41.5 103z" />
<glyph unicode="&#xe5;" horiz-adv-x="1073" d="M33 231q0 346 581 398v98q0 110 -60.5 163.5t-170.5 53.5q-53 0 -109 -18q47 -21 71 -47t24 -76q0 -66 -43 -105t-107 -39q-62 0 -106.5 39t-44.5 103q0 79 71 142t174.5 94.5t212.5 31.5q213 0 312.5 -89.5t99.5 -283.5v-401q0 -71 14.5 -106.5t41 -48t81.5 -19.5v-35 q-148 -106 -270 -106q-146 0 -187 126q-151 -131 -313 -131q-109 0 -190.5 72.5t-81.5 183.5zM317 1366q0 87 65 150t155 63q88 0 152.5 -63t64.5 -150q0 -89 -64.5 -152t-152.5 -63q-90 0 -155 63t-65 152zM358 315q0 -72 48.5 -112.5t109.5 -40.5q53 0 98 20v316 q-28 4 -43 4q-39 0 -73.5 -8.5t-67.5 -27.5t-52.5 -58t-19.5 -93zM420 1366q0 -48 35 -84.5t82 -36.5t80.5 36.5t33.5 84.5t-33.5 83.5t-80.5 35.5t-82 -36t-35 -83z" />
<glyph unicode="&#xe6;" horiz-adv-x="1566" d="M39 231q0 346 582 398v98q0 110 -61 163.5t-171 53.5q-52 0 -108 -18q46 -21 70 -47t24 -76q0 -66 -43 -105t-107 -39q-62 0 -106.5 39t-44.5 103q0 79 71 142t174.5 94.5t212.5 31.5q186 0 273 -104q122 104 297 104q395 0 395 -420v-102h-577q1 -97 25.5 -167t68 -108 t95.5 -55.5t116 -17.5q77 0 149.5 27.5t114.5 60.5l39 -41q-30 -49 -67.5 -92t-92.5 -86t-129.5 -68t-159.5 -25q-248 0 -368 177q-99 -94 -187 -135.5t-213 -41.5q-109 0 -190.5 72.5t-81.5 183.5zM365 315q0 -72 48 -112.5t109 -40.5q78 0 154 53q-55 116 -55 283 q-28 4 -43 4q-39 0 -73.5 -8.5t-67.5 -27.5t-52.5 -58t-19.5 -93zM920 649l284 33q-1 138 -32.5 198t-100.5 60q-148 0 -151 -291z" />
<glyph unicode="&#xe7;" horiz-adv-x="989" d="M59 494q0 141 45 253t122.5 181t176 105t211.5 36q136 0 232 -63t96 -164q0 -84 -47.5 -136.5t-118.5 -52.5q-72 0 -121 45.5t-49 122.5q0 66 64 137v9q-131 0 -207 -92.5t-76 -284.5q0 -111 22.5 -188.5t65 -121t96.5 -62.5t125 -19q129 0 224 75l34 -41 q-17 -34 -47.5 -70.5t-75.5 -76t-109.5 -68.5t-135.5 -38l-54 -84q66 -7 121.5 -55t55.5 -122q0 -82 -70 -128t-168 -46q-101 0 -170 27l16 59q63 -18 113 -18q49 0 78 25t29 59q0 46 -57.5 76t-119.5 32l127 172q-89 7 -166.5 45.5t-136 103.5t-92 160t-33.5 208z" />
<glyph unicode="&#xe8;" horiz-adv-x="1042" d="M63 502q0 129 41 237t111.5 179.5t164 111t198.5 39.5q395 0 395 -420v-102h-578q1 -97 25.5 -167t68 -108t95.5 -55.5t116 -17.5q77 0 150 27.5t115 60.5l39 -41q-30 -49 -67.5 -92t-92.5 -86t-129.5 -68t-159.5 -25q-224 0 -358 142t-134 385zM305 1307l94 174 l365 -269l-31 -59zM395 649l285 33q-1 138 -32.5 198t-100.5 60q-149 0 -152 -291z" />
<glyph unicode="&#xe9;" horiz-adv-x="1042" d="M63 502q0 129 41 237t111.5 179.5t164 111t198.5 39.5q395 0 395 -420v-102h-578q1 -97 25.5 -167t68 -108t95.5 -55.5t116 -17.5q77 0 150 27.5t115 60.5l39 -41q-30 -49 -67.5 -92t-92.5 -86t-129.5 -68t-159.5 -25q-224 0 -358 142t-134 385zM358 1212l365 269 l94 -174l-428 -154zM395 649l285 33q-1 138 -32.5 198t-100.5 60q-149 0 -152 -291z" />
<glyph unicode="&#xea;" horiz-adv-x="1042" d="M63 502q0 129 41 237t111.5 179.5t164 111t198.5 39.5q395 0 395 -420v-102h-578q1 -97 25.5 -167t68 -108t95.5 -55.5t116 -17.5q77 0 150 27.5t115 60.5l39 -41q-30 -49 -67.5 -92t-92.5 -86t-129.5 -68t-159.5 -25q-224 0 -358 142t-134 385zM266 1163l187 279h157 l191 -279h-37l-232 109l-229 -109h-37zM395 649l285 33q-1 138 -32.5 198t-100.5 60q-149 0 -152 -291z" />
<glyph unicode="&#xeb;" horiz-adv-x="1042" d="M63 502q0 129 41 237t111.5 179.5t164 111t198.5 39.5q395 0 395 -420v-102h-578q1 -97 25.5 -167t68 -108t95.5 -55.5t116 -17.5q77 0 150 27.5t115 60.5l39 -41q-30 -49 -67.5 -92t-92.5 -86t-129.5 -68t-159.5 -25q-224 0 -358 142t-134 385zM207 1309 q0 60 42.5 101.5t102.5 41.5q61 0 103.5 -41.5t42.5 -101.5t-42.5 -103t-103.5 -43q-60 0 -102.5 43t-42.5 103zM395 649l285 33q-1 138 -32.5 198t-100.5 60q-149 0 -152 -291zM569 1309q0 60 42 101.5t102 41.5q62 0 104.5 -41.5t42.5 -101.5t-43 -103t-104 -43 q-60 0 -102 43t-42 103z" />
<glyph unicode="&#xec;" horiz-adv-x="671" d="M35 926v61q109 8 238.5 31.5t207.5 50.5h21v-809q0 -38 1 -61.5t8.5 -44t12 -29.5t24 -22.5t30.5 -18.5t45 -21v-63h-566v63q34 16 45 21t30.5 18.5t24 22.5t12 29.5t8.5 44t1 61.5v449v44.5t-3 36.5t-3.5 29t-8 23.5t-9.5 18t-15 15t-17.5 13t-24 12t-27.5 11.5t-35 14z M106 1307l95 174l364 -269l-30 -59z" />
<glyph unicode="&#xed;" horiz-adv-x="671" d="M35 926v61q109 8 238.5 31.5t207.5 50.5h21v-809q0 -38 1 -61.5t8.5 -44t12 -29.5t24 -22.5t30.5 -18.5t45 -21v-63h-566v63q34 16 45 21t30.5 18.5t24 22.5t12 29.5t8.5 44t1 61.5v449v44.5t-3 36.5t-3.5 29t-8 23.5t-9.5 18t-15 15t-17.5 13t-24 12t-27.5 11.5t-35 14z M106 1212l365 269l94 -174l-428 -154z" />
<glyph unicode="&#xee;" horiz-adv-x="671" d="M35 926v61q109 8 238.5 31.5t207.5 50.5h21v-809q0 -38 1 -61.5t8.5 -44t12 -29.5t24 -22.5t30.5 -18.5t45 -21v-63h-566v63q34 16 45 21t30.5 18.5t24 22.5t12 29.5t8.5 44t1 61.5v449v44.5t-3 36.5t-3.5 29t-8 23.5t-9.5 18t-15 15t-17.5 13t-24 12t-27.5 11.5t-35 14z M68 1163l186 279h158l190 -279h-37l-231 109l-230 -109h-36z" />
<glyph unicode="&#xef;" horiz-adv-x="671" d="M10 1309q0 60 43 101.5t103 41.5q61 0 103 -41.5t42 -101.5t-42 -103t-103 -43q-60 0 -103 43t-43 103zM35 926v61q109 8 238.5 31.5t207.5 50.5h21v-809q0 -38 1 -61.5t8.5 -44t12 -29.5t24 -22.5t30.5 -18.5t45 -21v-63h-566v63q34 16 45 21t30.5 18.5t24 22.5t12 29.5 t8.5 44t1 61.5v449v44.5t-3 36.5t-3.5 29t-8 23.5t-9.5 18t-15 15t-17.5 13t-24 12t-27.5 11.5t-35 14zM373 1309q0 60 41.5 101.5t101.5 41.5q62 0 105 -41.5t43 -101.5t-43.5 -103t-104.5 -43q-60 0 -101.5 43t-41.5 103z" />
<glyph unicode="&#xf0;" horiz-adv-x="1234" d="M63 522q0 125 46 230t122.5 173t173.5 106t201 38q59 0 111 -20q-50 107 -195 256l-164 -66l-39 86l132 51q-10 10 -185 168h111q101 -56 196 -119l189 78l39 -86l-137 -55q107 -80 194 -168t159.5 -193t113 -228t40.5 -251q0 -160 -77.5 -286.5t-203.5 -193.5t-274 -67 q-149 0 -274.5 67t-202 193.5t-76.5 286.5zM420 522q0 -418 196 -418q197 0 197 418q0 209 -51 313.5t-146 104.5q-196 0 -196 -418z" />
<glyph unicode="&#xf1;" horiz-adv-x="1302" d="M39 926v61q109 8 237.5 31.5t206.5 50.5h19v-154q191 152 329 152q61 0 114 -19t98 -59.5t71.5 -113t26.5 -168.5v-447q0 -38 1 -62t8.5 -44t12.5 -30t23.5 -23t30.5 -19t45 -21v-61h-557v61q36 17 50 25.5t30.5 22.5t21 33t7.5 45.5t3 72.5v451q0 84 -45.5 129 t-116.5 45q-80 0 -147 -41v-584q0 -39 0.5 -62t6.5 -43.5t10.5 -30t21 -22t28.5 -18.5t43 -21v-63h-557v63q34 16 45 21t30.5 18.5t24 22.5t12 29.5t8.5 44t1 61.5v449v44.5t-3 36.5t-3.5 29t-8 23.5t-9.5 18t-15 15t-17.5 13t-24 12t-27.5 11.5t-35 14zM354 1169 q6 23 18.5 54t35.5 76.5t58.5 75.5t74.5 30q57 0 146 -29.5t132 -29.5q12 0 22 1.5t17 3t15 7t11.5 7.5t11 11t9.5 11.5t10.5 14.5t10.5 15l41 -4q-6 -23 -18.5 -54t-35.5 -76.5t-58.5 -76t-74.5 -30.5q-60 0 -152 30.5t-126 30.5q-12 0 -22 -1.5t-17 -3.5t-14.5 -7 t-11.5 -7.5t-11 -11t-9.5 -12t-10.5 -14.5t-11 -15z" />
<glyph unicode="&#xf2;" horiz-adv-x="1234" d="M63 522q0 125 46 230t123.5 173t176.5 106t207 38t208 -38t177 -106t123.5 -173t46.5 -230q0 -160 -77.5 -287t-203.5 -194.5t-274 -67.5q-149 0 -274.5 67.5t-202 194.5t-76.5 287zM406 1307l94 174l364 -269l-30 -59zM420 522q0 -420 196 -420q197 0 197 420 q0 209 -51 313.5t-146 104.5q-196 0 -196 -418z" />
<glyph unicode="&#xf3;" horiz-adv-x="1234" d="M63 522q0 125 46 230t123.5 173t176.5 106t207 38t208 -38t177 -106t123.5 -173t46.5 -230q0 -160 -77.5 -287t-203.5 -194.5t-274 -67.5q-149 0 -274.5 67.5t-202 194.5t-76.5 287zM406 1212l364 269l94 -174l-428 -154zM420 522q0 -420 196 -420q197 0 197 420 q0 209 -51 313.5t-146 104.5q-196 0 -196 -418z" />
<glyph unicode="&#xf4;" horiz-adv-x="1234" d="M63 522q0 125 46 230t123.5 173t176.5 106t207 38t208 -38t177 -106t123.5 -173t46.5 -230q0 -160 -77.5 -287t-203.5 -194.5t-274 -67.5q-149 0 -274.5 67.5t-202 194.5t-76.5 287zM367 1163l186 279h158l190 -279h-37l-231 109l-230 -109h-36zM420 522q0 -420 196 -420 q197 0 197 420q0 209 -51 313.5t-146 104.5q-196 0 -196 -418z" />
<glyph unicode="&#xf5;" horiz-adv-x="1234" d="M63 522q0 125 46 230t123.5 173t176.5 106t207 38t208 -38t177 -106t123.5 -173t46.5 -230q0 -160 -77.5 -287t-203.5 -194.5t-274 -67.5q-149 0 -274.5 67.5t-202 194.5t-76.5 287zM328 1169q5 17 12.5 39.5t25 59t37 65.5t49.5 50.5t62 21.5q57 0 146.5 -29.5 t132.5 -29.5q12 0 21.5 1.5t17 3t15 6.5t11.5 8t10.5 11t9.5 11.5t10.5 14.5t10.5 15l41 -4q-5 -17 -12.5 -39.5t-25 -59.5t-37 -66t-49.5 -50.5t-62 -21.5q-60 0 -152.5 30.5t-126.5 30.5q-13 0 -23.5 -1.5t-20 -6t-15 -7t-13 -11.5t-10.5 -12.5t-12 -16.5t-12 -17z M420 522q0 -420 196 -420q197 0 197 420q0 209 -51 313.5t-146 104.5q-196 0 -196 -418z" />
<glyph unicode="&#xf6;" horiz-adv-x="1234" d="M63 522q0 125 46 230t123.5 173t176.5 106t207 38t208 -38t177 -106t123.5 -173t46.5 -230q0 -160 -77.5 -287t-203.5 -194.5t-274 -67.5q-149 0 -274.5 67.5t-202 194.5t-76.5 287zM307 1309q0 60 43 101.5t103 41.5q61 0 103 -41.5t42 -101.5t-42 -103t-103 -43 q-60 0 -103 43t-43 103zM420 522q0 -420 196 -420q197 0 197 420q0 209 -51 313.5t-146 104.5q-196 0 -196 -418zM670 1309q0 60 41.5 101.5t101.5 41.5q62 0 105 -41.5t43 -101.5t-43.5 -103t-104.5 -43q-60 0 -101.5 43t-41.5 103z" />
<glyph unicode="&#xf7;" horiz-adv-x="1167" d="M147 498v157h873v-157h-873zM453 156q0 54 39 92.5t94 38.5q54 0 92.5 -38.5t38.5 -92.5q0 -55 -38.5 -94t-92.5 -39q-56 0 -94.5 38.5t-38.5 94.5zM453 985q0 54 39 92.5t94 38.5q54 0 92.5 -38.5t38.5 -92.5q0 -55 -38.5 -94t-92.5 -39q-56 0 -94.5 39t-38.5 94z" />
<glyph unicode="&#xf8;" horiz-adv-x="1234" d="M63 522q0 125 46 230t123.5 173t176.5 106t207 38q128 0 244 -55l76 119l92 -62l-70 -113q99 -72 156 -183.5t57 -252.5q0 -160 -77.5 -286.5t-203.5 -193.5t-274 -67q-127 0 -249 56l-76 -121l-92 61l73 117q-98 72 -153.5 184t-55.5 250zM420 522q0 -100 12 -180 l326 508q-53 100 -142 100q-96 0 -146 -108.5t-50 -319.5zM471 197q48 -103 145 -103q197 0 197 428q0 113 -14 187z" />
<glyph unicode="&#xf9;" horiz-adv-x="1249" d="M39 926v61q106 7 225.5 30.5t200.5 51.5h20v-704q0 -96 46 -141.5t114 -45.5q74 0 131 29v502v44.5t-3 36.5t-3.5 29t-8 23.5t-9.5 18t-15 15t-17.5 13t-24 12t-27.5 11.5t-35 14v61q109 8 238.5 31.5t207.5 50.5h21v-721q0 -62 3.5 -94t21.5 -56t39 -35t71 -32 q7 -3 10 -4v-61q-252 -23 -444 -91h-19v156q-51 -44 -89 -72t-103 -56t-127 -28q-301 0 -301 342v392q0 37 -1.5 61.5t-3 44.5t-10 33.5t-13.5 22.5t-23.5 19.5t-29.5 16t-42 19.5zM406 1307l94 174l364 -269l-30 -59z" />
<glyph unicode="&#xfa;" horiz-adv-x="1249" d="M39 926v61q106 7 225.5 30.5t200.5 51.5h20v-704q0 -96 46 -141.5t114 -45.5q74 0 131 29v502v44.5t-3 36.5t-3.5 29t-8 23.5t-9.5 18t-15 15t-17.5 13t-24 12t-27.5 11.5t-35 14v61q109 8 238.5 31.5t207.5 50.5h21v-721q0 -62 3.5 -94t21.5 -56t39 -35t71 -32 q7 -3 10 -4v-61q-252 -23 -444 -91h-19v156q-51 -44 -89 -72t-103 -56t-127 -28q-301 0 -301 342v392q0 37 -1.5 61.5t-3 44.5t-10 33.5t-13.5 22.5t-23.5 19.5t-29.5 16t-42 19.5zM406 1212l364 269l94 -174l-428 -154z" />
<glyph unicode="&#xfb;" horiz-adv-x="1249" d="M39 926v61q106 7 225.5 30.5t200.5 51.5h20v-704q0 -96 46 -141.5t114 -45.5q74 0 131 29v502v44.5t-3 36.5t-3.5 29t-8 23.5t-9.5 18t-15 15t-17.5 13t-24 12t-27.5 11.5t-35 14v61q109 8 238.5 31.5t207.5 50.5h21v-721q0 -62 3.5 -94t21.5 -56t39 -35t71 -32 q7 -3 10 -4v-61q-252 -23 -444 -91h-19v156q-51 -44 -89 -72t-103 -56t-127 -28q-301 0 -301 342v392q0 37 -1.5 61.5t-3 44.5t-10 33.5t-13.5 22.5t-23.5 19.5t-29.5 16t-42 19.5zM367 1163l186 279h158l190 -279h-37l-231 109l-230 -109h-36z" />
<glyph unicode="&#xfc;" horiz-adv-x="1249" d="M39 926v61q106 7 225.5 30.5t200.5 51.5h20v-704q0 -96 46 -141.5t114 -45.5q74 0 131 29v502v44.5t-3 36.5t-3.5 29t-8 23.5t-9.5 18t-15 15t-17.5 13t-24 12t-27.5 11.5t-35 14v61q109 8 238.5 31.5t207.5 50.5h21v-721q0 -62 3.5 -94t21.5 -56t39 -35t71 -32 q7 -3 10 -4v-61q-252 -23 -444 -91h-19v156q-51 -44 -89 -72t-103 -56t-127 -28q-301 0 -301 342v392q0 37 -1.5 61.5t-3 44.5t-10 33.5t-13.5 22.5t-23.5 19.5t-29.5 16t-42 19.5zM307 1309q0 60 43 101.5t103 41.5q61 0 103 -41.5t42 -101.5t-42 -103t-103 -43 q-60 0 -103 43t-43 103zM670 1309q0 60 41.5 101.5t101.5 41.5q62 0 105 -41.5t43 -101.5t-43.5 -103t-104.5 -43q-60 0 -101.5 43t-41.5 103z" />
<glyph unicode="&#xfd;" horiz-adv-x="1204" d="M8 979v65h592v-67q-52 -12 -74 -37t-22 -68q0 -14 3 -33.5t7 -36.5t11.5 -47.5t11.5 -49.5l118 -512h11l96 337q61 216 61 308q0 62 -24.5 96t-77.5 43v67h475v-63q-48 -20 -83.5 -61t-79 -136t-101.5 -268l-201 -600q-134 -395 -395 -395q-90 0 -141.5 46.5t-51.5 123.5 q0 66 41.5 111.5t106.5 45.5q137 0 149 -147q88 75 142 252l14 47h-182l-209 690q-23 75 -42 123t-33.5 77t-36 46.5t-37 24.5t-48.5 18zM373 1212l364 269l94 -174l-428 -154z" />
<glyph unicode="&#xfe;" horiz-adv-x="1280" d="M12 1401v61q110 8 243.5 31.5t213.5 50.5h16v-635q147 160 318 160q125 0 217.5 -66t139 -176.5t46.5 -248.5q0 -102 -27.5 -191t-75 -153.5t-108.5 -115t-131 -81.5t-140 -46.5t-138 -15.5q-47 0 -101 7v-179q0 -29 0.5 -48.5t5 -37.5l7 -28t13.5 -22t17.5 -17.5t27 -15 t32.5 -14.5t43 -17v-64h-600v64q38 18 52.5 26t33.5 22.5t24 33t9 46t4 72.5l2 1391q0 51 -3.5 80.5t-10 50t-25 33t-37 20t-58.5 20.5q-3 1 -5.5 1.5t-4.5 1.5zM485 154q57 -31 111 -31q56 0 103.5 19t88 61t63.5 118.5t23 182.5q0 174 -71.5 274.5t-177.5 100.5 q-77 0 -140 -48v-677z" />
<glyph unicode="&#xff;" horiz-adv-x="1204" d="M8 979v65h592v-67q-52 -12 -74 -37t-22 -68q0 -14 3 -33.5t7 -36.5t11.5 -47.5t11.5 -49.5l118 -512h11l96 337q61 216 61 308q0 62 -24.5 96t-77.5 43v67h475v-63q-48 -20 -83.5 -61t-79 -136t-101.5 -268l-201 -600q-134 -395 -395 -395q-90 0 -141.5 46.5t-51.5 123.5 q0 66 41.5 111.5t106.5 45.5q137 0 149 -147q88 75 142 252l14 47h-182l-209 690q-23 75 -42 123t-33.5 77t-36 46.5t-37 24.5t-48.5 18zM276 1309q0 60 43 101.5t103 41.5q61 0 103 -41.5t42 -101.5t-42 -103t-103 -43q-60 0 -103 43t-43 103zM639 1309q0 60 41.5 101.5 t101.5 41.5q62 0 105 -41.5t43 -101.5t-43.5 -103t-104.5 -43q-60 0 -101.5 43t-41.5 103z" />
<glyph unicode="&#x152;" horiz-adv-x="2293" d="M82 705q0 140 44 260.5t119.5 206.5t176 148t214.5 92t234 30q129 0 245 -52.5t206 -148.5v172h823v-313h-78q-41 52 -61 77.5t-47 50t-38.5 32.5t-41 15t-48 7h-65.5h-131v-496h154q72 0 111 28t92 116h67v-406h-65q-53 85 -92.5 111.5t-112.5 26.5h-154v-531h133h67.5 t54.5 5.5t43 7.5t39.5 18.5t37 24.5t42 39.5t48.5 50.5t62 69h80l-43 -346h-879v162q-85 -92 -203.5 -142.5t-253.5 -50.5q-124 0 -238 28.5t-213 88.5t-172 145.5t-115 207t-42 266.5zM446 705q0 -280 112 -442.5t312 -162.5t313 162.5t113 442.5q0 279 -112.5 443.5 t-313.5 164.5q-202 0 -313 -161.5t-111 -446.5z" />
<glyph unicode="&#x153;" horiz-adv-x="1777" d="M63 522q0 125 45 230t120.5 173.5t174 106t205.5 37.5q103 0 195.5 -42t159.5 -116q136 158 337 158q71 0 128.5 -11t111 -40t89.5 -75.5t57.5 -121t21.5 -172.5v-102h-578q5 -348 310 -348q73 0 145.5 27.5t114.5 60.5l39 -41q-26 -44 -63.5 -86.5t-92 -86.5t-129 -71 t-156.5 -27q-230 0 -350 142q-144 -144 -340 -144q-149 0 -272.5 67.5t-198 194t-74.5 287.5zM420 522q0 -418 196 -418q197 0 197 418q0 209 -51 313.5t-146 104.5q-196 0 -196 -418zM1130 649l285 33q-1 138 -32.5 198t-100.5 60q-149 0 -152 -291z" />
<glyph unicode="&#x178;" horiz-adv-x="1390" d="M8 1352v61h649v-63q-57 -15 -80.5 -31.5t-23.5 -50.5q0 -23 12 -61.5t25.5 -70.5t48.5 -114l115 -268l114 272q31 73 42 101.5t21.5 65t10.5 60.5q0 42 -29 61t-98 36v63h533v-63q-91 -28 -163 -99.5t-145 -240.5l-190 -432v-295q0 -77 11.5 -114t40.5 -59t97 -47v-63 h-643v63q67 25 95.5 47t40.5 59.5t12 113.5v292l-205 437q-35 75 -68 130t-57 87t-56 57.5t-52 36.5t-58 29zM367 1677q0 60 42.5 102t102.5 42q61 0 103 -42t42 -102t-42 -102.5t-103 -42.5q-60 0 -102.5 42.5t-42.5 102.5zM729 1677q0 60 41.5 102t101.5 42q62 0 105 -42 t43 -102t-43.5 -102.5t-104.5 -42.5q-60 0 -101.5 42.5t-41.5 102.5z" />
<glyph unicode="&#x2c6;" horiz-adv-x="624" d="M45 1163l186 279h158l191 -279h-37l-232 109l-229 -109h-37z" />
<glyph unicode="&#x2dc;" horiz-adv-x="694" d="M41 1169q5 17 12.5 39.5t25 59t37 65.5t49.5 50.5t62 21.5q57 0 146.5 -29.5t132.5 -29.5q12 0 21.5 1.5t17 3t15 6.5t11.5 8t10.5 11t9.5 11.5t10.5 14.5t10.5 15l41 -4q-5 -17 -12.5 -39.5t-25 -59.5t-37 -66t-49.5 -50.5t-62 -21.5q-60 0 -152.5 30.5t-126.5 30.5 q-13 0 -23.5 -1.5t-20 -6t-15 -7t-13 -11.5t-10.5 -12.5t-12 -16.5t-12 -17z" />
<glyph unicode="&#x2000;" horiz-adv-x="924" />
<glyph unicode="&#x2001;" horiz-adv-x="1849" />
<glyph unicode="&#x2002;" horiz-adv-x="924" />
<glyph unicode="&#x2003;" horiz-adv-x="1849" />
<glyph unicode="&#x2004;" horiz-adv-x="616" />
<glyph unicode="&#x2005;" horiz-adv-x="462" />
<glyph unicode="&#x2006;" horiz-adv-x="308" />
<glyph unicode="&#x2007;" horiz-adv-x="308" />
<glyph unicode="&#x2008;" horiz-adv-x="231" />
<glyph unicode="&#x2009;" horiz-adv-x="369" />
<glyph unicode="&#x200a;" horiz-adv-x="102" />
<glyph unicode="&#x2010;" horiz-adv-x="724" d="M53 508v199h619v-199h-619z" />
<glyph unicode="&#x2011;" horiz-adv-x="724" d="M53 508v199h619v-199h-619z" />
<glyph unicode="&#x2012;" horiz-adv-x="724" d="M53 508v199h619v-199h-619z" />
<glyph unicode="&#x2013;" horiz-adv-x="1024" d="M0 502v155h1024v-155h-1024z" />
<glyph unicode="&#x2014;" horiz-adv-x="2048" d="M0 502v155h2048v-155h-2048z" />
<glyph unicode="&#x2018;" horiz-adv-x="430" d="M49 1038q0 177 256 404h78q-94 -131 -94 -236q0 -33 20.5 -60.5t41 -59.5t20.5 -76q0 -64 -46 -108t-108 -44q-74 0 -121 52t-47 128z" />
<glyph unicode="&#x2019;" horiz-adv-x="430" d="M43 858q94 131 94 236q0 33 -20.5 60.5t-41 59.5t-20.5 76q0 64 46 108t108 44q74 0 121 -52t47 -128q0 -177 -256 -404h-78z" />
<glyph unicode="&#x201a;" horiz-adv-x="430" d="M43 -236q94 131 94 234q0 34 -20.5 62t-41 60.5t-20.5 76.5q0 62 46 105.5t108 43.5q74 0 121 -51.5t47 -128.5q0 -175 -256 -402h-78z" />
<glyph unicode="&#x201c;" horiz-adv-x="839" d="M49 1038q0 177 256 404h78q-94 -131 -94 -236q0 -33 20.5 -60.5t41 -59.5t20.5 -76q0 -64 -46 -108t-108 -44q-74 0 -121 52t-47 128zM457 1038q0 177 256 404h78q-95 -132 -95 -236q0 -33 20.5 -60.5t41 -59.5t20.5 -76q0 -64 -45.5 -108t-107.5 -44q-74 0 -121 52 t-47 128z" />
<glyph unicode="&#x201d;" horiz-adv-x="839" d="M43 858q94 131 94 236q0 33 -20.5 60.5t-41 59.5t-20.5 76q0 64 46 108t108 44q74 0 121 -52t47 -128q0 -177 -256 -404h-78zM451 858q94 131 94 236q0 33 -20.5 60.5t-41 59.5t-20.5 76q0 64 45.5 108t107.5 44q74 0 121 -52t47 -128q0 -177 -256 -404h-77z" />
<glyph unicode="&#x201e;" horiz-adv-x="839" d="M43 -236q94 131 94 234q0 34 -20.5 62t-41 60.5t-20.5 76.5q0 62 46 105.5t108 43.5q74 0 121 -51.5t47 -128.5q0 -175 -256 -402h-78zM451 -236q94 131 94 234q0 34 -20.5 62t-41 60.5t-20.5 76.5q0 62 45.5 105.5t107.5 43.5q74 0 121 -51.5t47 -128.5 q0 -175 -256 -402h-77z" />
<glyph unicode="&#x2022;" horiz-adv-x="1001" d="M80 723q0 174 123 297t297 123q175 0 298.5 -123.5t123.5 -296.5q0 -175 -123.5 -298.5t-296.5 -123.5q-176 0 -299 123.5t-123 298.5z" />
<glyph unicode="&#x2026;" horiz-adv-x="1556" d="M70 158q0 78 55 132t133 54t133 -54t55 -132t-55 -132.5t-133 -54.5t-133 54.5t-55 132.5zM590 158q0 78 55 132t133 54q77 0 133 -54.5t56 -131.5t-56 -132t-133 -55q-78 0 -133 54.5t-55 132.5zM1108 158q0 78 55 132t133 54t133.5 -54t55.5 -132t-55.5 -132.5 t-133.5 -54.5t-133 54.5t-55 132.5z" />
<glyph unicode="&#x202f;" horiz-adv-x="369" />
<glyph unicode="&#x2039;" horiz-adv-x="630" d="M41 543l448 422h78l-205 -422l205 -420h-78z" />
<glyph unicode="&#x203a;" horiz-adv-x="630" d="M61 123l205 420l-205 422h78l449 -422l-449 -420h-78z" />
<glyph unicode="&#x205f;" horiz-adv-x="462" />
<glyph unicode="&#x20ac;" horiz-adv-x="1107" d="M63 506v127h119v61q0 66 4 99h-123v127h142q24 114 72 209t117 165t161.5 109t198.5 39q117 0 200.5 -62.5t83.5 -156.5q0 -82 -49 -131.5t-117 -49.5q-69 0 -113 36.5t-44 99.5q0 54 32.5 92t88.5 53q-30 20 -80 20q-193 0 -226 -423h301v-127h-307v-160h307v-127h-299 q21 -177 82.5 -278t161.5 -101q45 0 81 24.5t58.5 66t35.5 86.5t20 97h96q-3 -51 -17.5 -106t-46 -114t-74.5 -105.5t-109.5 -76.5t-145.5 -30q-199 0 -322 146.5t-157 390.5h-132z" />
<glyph unicode="&#x2122;" horiz-adv-x="1482" d="M31 1245l20 168h520l21 -168h-43q-49 66 -66 79t-55 13h-29v-293q0 -74 13 -94.5t61 -36.5v-43h-323v43q34 11 46.5 20.5t19.5 34t7 76.5v293h-28q-38 0 -55 -13t-66 -79h-43zM586 870v43q25 8 35.5 12.5t24 17t19.5 34t9 57.5l16 213q4 50 -3.5 75t-20.5 33t-48 17v41 h269l145 -319l127 319h260v-41q-24 -7 -34.5 -12t-21.5 -17.5t-13 -34.5t0 -59l14 -215q2 -27 6 -45.5t7 -29t12.5 -18.5t15 -10.5t21.5 -8.5l24 -9v-43h-313v43q43 17 49 22q26 19 22 95v4l-14 234l-162 -398h-84l-168 387l-12 -223q-2 -35 2 -57.5t17 -35t22.5 -17 t32.5 -11.5v-43h-256z" />
<glyph unicode="&#x25fc;" horiz-adv-x="1044" d="M0 0v1044h1044v-1044h-1044z" />
<glyph unicode="&#xfb01;" horiz-adv-x="1333" d="M23 889l28 155h117v54q0 120 46 208t130.5 139t193 75t244.5 24q189 0 286 -62.5t97 -162.5q0 -70 -50 -115t-114 -45q-70 0 -115.5 36t-45.5 103q0 73 78 129q-53 17 -115 17q-159 0 -232 -70.5t-73 -247.5v-82h370q43 0 138 9.5t143 17.5h20v-805q0 -30 0.5 -50.5 t4 -39t5 -29t11.5 -22.5t14.5 -17t22.5 -15t27 -14l36 -16v-63h-565v63q32 13 46.5 19.5t31.5 18.5t22.5 22.5t12 32t7.5 46t1 64.5v428q0 115 -22 155t-91 40h-235v-623q0 -43 0.5 -65t6.5 -44.5t11.5 -31.5t25.5 -22t37 -19.5t56 -20.5v-63h-590v63q34 14 47 20t31.5 18.5 t23.5 23t12 31.5t8 45.5t1 64.5v623h-145z" />
<glyph unicode="&#xfb02;" horiz-adv-x="1331" d="M23 889l28 155h117v93q0 82 27 150t73.5 115t111 79.5t139 47.5t157.5 15q174 0 254 -80q92 26 217 80h27v-1284q0 -28 0.5 -48t4.5 -37.5t5.5 -28t12 -22t14.5 -16.5t22.5 -15t27 -14t35.5 -16v-63h-575v63q32 13 45.5 19.5t31.5 18.5t23.5 22.5t12.5 30.5t8.5 44 t1.5 62v938q-162 0 -162 133q0 71 55 123h-55q-184 0 -184 -289v-121h194v-155h-194v-629q0 -39 1 -61.5t7.5 -43.5t13 -31t26 -22t36.5 -19t55 -20v-63h-592v63q32 13 45.5 19.5t31.5 18.5t23.5 22.5t12.5 30.5t8.5 44t1.5 62v629h-145z" />
</font>
</defs>
</svg>
